<?xml version="1.0" encoding="utf-8" ?>
<svg baseProfile="full" height="200mm" version="1.1" viewBox="0,0,200,200" width="200mm" xmlns="http://www.w3.org/2000/svg" xmlns:ev="http://www.w3.org/2001/xml-events" xmlns:xlink="http://www.w3.org/1999/xlink"><defs /><rect fill="#1a1a1a" height="200" width="200" x="0" y="0" /><text alignment-baseline="middle" fill="#e1ed5e" style="dominant-baseline: central; font-size:9.0px; font-family:Arial;" text-anchor="middle" x="100.0" y="100.0">2018</text><line stroke="#e1ed5e" stroke-width="0.3" x1="100.0" x2="100.0" y1="15.0" y2="10.0" /><path d="M 100.0 14.0 a86.0,86.0 0 0,1 42.46469731375804,11.215312516191453" fill="none" id="id25" stroke="none" /><text fill="#e1ed5e" style="font-size:6.75px; font-family:Arial;" text-anchor="middle"><textPath startOffset="22.20632615414155" xlink:href="#id25">January</textPath></text><path d="M 101.80526077348638 79.07773832637324 l 1.146677544103467 -13.28954131467228 a34.33891966182166,34.33891966182166 0 0,0 0.588462588055066,0.055881613399037904 l -1.375265259248777 13.267834156758063" fill="#ffa30f" stroke="none" /><line stroke="#e1ed5e" stroke-width="0.3" x1="143.23703022742887" x2="145.7803849466894" y1="26.81831364943548" y2="22.513508569990506" /><path d="M 143.74570117128098 25.957352633546492 a86.0,86.0 0 0,1 28.547481713284135,27.462654790039103" fill="none" id="id26" stroke="none" /><text fill="#e1ed5e" style="font-size:6.75px; font-family:Arial;" text-anchor="middle"><textPath startOffset="19.985693538727396" xlink:href="#id26">February</textPath></text><path d="M 113.6212207817346 84.01681056812373 l 8.518080233449881 -9.995145967365534 a34.132426804381325,34.132426804381325 0 0,0 0.44389416321485475,0.3849406441342019 l -8.688868195311501 9.847040329811662" fill="#ffa00e" stroke="none" /><path d="M 114.16331599549186 84.49514656593476 l 6.00971088816806 -6.578945674290585 a29.9106201324393,29.9106201324393 0 0,0 0.3771474477084315,0.3505174496312781 l -6.122066219671338 6.4745236385846665" fill="#ff6709" stroke="none" /><line stroke="#e1ed5e" stroke-width="0.3" x1="172.23445277983987" x2="176.4835382374775" y1="55.19839476539836" y2="52.563006222186495" /><path d="M 173.08426987136738 54.67131705675599 a86.0,86.0 0 0,1 12.851231095245387,41.99856678651699" fill="none" id="id27" stroke="none" /><text fill="#e1ed5e" style="font-size:6.75px; font-family:Arial;" text-anchor="middle"><textPath startOffset="22.20632615414155" xlink:href="#id27">March</textPath></text><path d="M 118.21658344932153 89.55222093294921 l 14.979335756230586 -8.591116494904547 a38.268114614135186,38.268114614135186 0 0,0 0.32280495647806773,0.5742339980294904 l -15.124998354001088 8.331998986940263" fill="#ffd614" stroke="none" /><path d="M 120.18372546131832 94.20196356495316 l 16.672133260918145 -4.789286114796668 a38.34639123734955,38.34639123734955 0 0,0 0.1767827606101679,0.6359816486973048 l -16.752102792094675 4.501593162680411" fill="#ffd714" stroke="none" /><path d="M 120.73433829027371 96.67025291283417 l 11.131080968725454 -1.7875508691785367 a32.273699554370914,32.273699554370914 0 0,0 0.08336466655882455,0.5492689936725442 l -11.16020152872358 1.5956827631139103" fill="#ff870c" stroke="none" /><line stroke="#e1ed5e" stroke-width="0.3" x1="184.98032266829074" x2="189.97916517819016" y1="98.17113171792111" y2="98.06355123074" /><path d="M 185.9800911702706 98.14961562048488 a86.0,86.0 0 0,1 -9.607161424134198,41.387399972396054" fill="none" id="id28" stroke="none" /><text fill="#e1ed5e" style="font-size:6.75px; font-family:Arial;" text-anchor="middle"><textPath startOffset="21.466115282336823" xlink:href="#id28">April</textPath></text><path d="M 120.32669344350535 105.2749913415812 l 12.675365172102994 3.289390953824156 a34.095227187539045,34.095227187539045 0 0,0 -0.15231137381081783,0.5668072831718778 l -12.616865721950399 -3.507089170171582" fill="#ffa00e" stroke="none" /><path d="M 119.79798401119884 107.00284435728193 l 8.441785844132102 2.9859864686486937 a29.954320936237558,29.954320936237558 0 0,0 -0.17612532922326385,0.48462126320343235 l -8.389136253903612 -3.130855528858257" fill="#ff6809" stroke="none" /><path d="M 118.97047184881838 109.00673069616215 l 20.14902554740996 9.56628007684039 a43.304639540210744,43.304639540210744 0 0,0 -0.3254998249950449,0.6706260493533024 l -19.9813724658002 -9.911695082158968" fill="#eaff1a" stroke="none" /><path d="M 118.81262510543309 109.33194174019688 l 15.291705452511563 7.5854009523570785 a38.069697222106534,38.069697222106534 0 0,0 -0.296257169565268,0.5845435014772329 l -15.158869613160027 -7.847498665537006" fill="#ffd313" stroke="none" /><path d="M 118.64920377521936 109.65438752849418 l 9.694308313706234 5.018584729369878 a31.916309191620506,31.916309191620506 0 0,0 -0.2567704945068131,0.48571300911953863 l -9.606485310974527 -5.184712753575551" fill="#ff830c" stroke="none" /><line stroke="#e1ed5e" stroke-width="0.3" x1="174.80103733775053" x2="179.2010983576182" y1="140.37084112569926" y2="142.7455964860345" /><path d="M 175.68104954172406 140.8457921977663 a86.0,86.0 0 0,1 -30.038265399797805,32.042727171017184" fill="none" id="id29" stroke="none" /><text fill="#e1ed5e" style="font-size:6.75px; font-family:Arial;" text-anchor="middle"><textPath startOffset="22.206326154141568" xlink:href="#id29">May</textPath></text><path d="M 117.55443506779139 111.5257021239791 l 37.58705444283597 24.678503839794484 a65.96459955853567,65.96459955853567 0 0,0 -0.6313656982900471,0.9438060541207569 l -37.1566856391352 -25.321846808121048" fill="#36ff72" stroke="none" /><path d="M 116.93607887273984 112.41649034213515 l 13.68316110399628 10.031651303367124 a37.9665236766482,37.9665236766482 0 0,0 -0.39094442799186685,0.5237339485204587 l -13.50845540930932 -10.265698131396897" fill="#ffd213" stroke="none" /><path d="M 116.71984013943494 112.70617746262583 l 13.469692435348975 10.236240360149573 a37.9178376577402,37.9178376577402 0 0,0 -0.3993889140821017,0.5162640096185297 l -13.291496704048804 -10.466582363881354" fill="#ffd213" stroke="none" /><path d="M 116.27256486870786 113.27417163493432 l 19.997726873413928 16.31293290074398 a46.80737995085586,46.80737995085586 0 0,0 -0.514667203102637,0.6199498008251978 l -19.713963670417748 -16.65474395868295" fill="#c0ff1e" stroke="none" /><path d="M 116.0416608686014 113.55231037782055 l 10.222408255311993 8.63609140098108 a34.382066552829954,34.382066552829954 0 0,0 -0.38582816760049393,0.44880532477538815 l -10.072237578140722 -8.810773824917996" fill="#ffa40f" stroke="none" /><path d="M 115.56566222782051 114.09645910891815 l 9.48582040286436 8.590478032121723 a33.797542792886595,33.797542792886595 0 0,0 -0.3942299765731367,0.42785877820414725 l -9.3365440182955 -8.752488065127205" fill="#ff9c0e" stroke="none" /><path d="M 115.32070863581623 114.36230785411682 l 12.524535212211983 11.741051587326359 a38.16730248636042,38.16730248636042 0 0,0 -0.453451996280204,0.4754426052226032 l -12.320576664552814 -11.954901309131468" fill="#ffd513" stroke="none" /><path d="M 115.07121518719521 114.62390073753431 l 12.30919474090416 11.943857201567965 a38.1514430885844,38.1514430885844 0 0,0 -0.46137698285743817,0.46737244775685755 l -12.101777132991188 -12.153970143305488" fill="#ffd513" stroke="none" /><path d="M 114.81725581225074 114.88116024355365 l 5.42071345170625 5.444092113367807 a28.682595477073008,28.682595477073008 0 0,0 -0.35286428130893527,0.3453519673472101 l -5.326199218021521 -5.536594183637589" fill="#ff5608" stroke="none" /><path d="M 114.55890576462653 115.13401014063108 l 11.858819222475036 12.327265061698942 a38.105351713797845,38.105351713797845 0 0,0 -0.47661478157854853,0.4506690247772298 l -11.64486860650568 -12.529568723222093" fill="#ffd413" stroke="none" /><path d="M 114.29624159901734 115.38237550388516 l 8.608646418699438 9.26267445016549 a33.64539169547291,33.64539169547291 0 0,0 -0.42761762866121683,0.3906185650659051 l -8.447929240571357 -9.409485781817978" fill="#ff9a0e" stroke="none" /><path d="M 114.0293411484842 115.62618273729858 l 5.77689522404203 6.4344304889087 a29.647220024155594,29.647220024155594 0 0,0 -0.38267170012420537,0.33766328288396297 l -5.665281171011237 -6.532916913564952" fill="#ff6309" stroke="none" /><path d="M 113.48314897796784 116.09983520530334 l 11.211343289663926 13.387138248536763 a38.46166340427304,38.46166340427304 0 0,0 -0.511228531523433,0.42070627718255954 l -10.9792446295958 -13.5781396445765" fill="#ffd814" stroke="none" /><path d="M 113.20401910651253 116.32954008644616 l 7.372312740563436 9.117411558990474 a32.725109324892756,32.725109324892756 0 0,0 -0.4410760473531638,0.35041748798299943 l -7.214279200492922 -9.242962960978598" fill="#ff8d0d" stroke="none" /><path d="M 112.92097659922987 116.55440617244103 l 10.535475846859466 13.498093201348954 a38.12293115655325,38.12293115655325 0 0,0 -0.5207797016397826,0.39931166803167906 l -10.301567416726188 -13.677444211208003" fill="#ffd413" stroke="none" /><path d="M 112.34349029814194 116.9893568818739 l 10.476844337044668 14.420139129099075 a38.824272208571074,38.824272208571074 0 0,0 -0.5440439203399284,0.38816089190054776 l -10.227073088855855 -14.598344282843842" fill="#ffdd14" stroke="none" /><path d="M 112.04921762599082 117.19931262002967 l 9.924993734799008 14.16714971007148 a38.297792678355755,38.297792678355755 0 0,0 -0.5431778039708767,0.3736026465308208 l -9.679659046205249 -14.335893145967393" fill="#ffd614" stroke="none" /><path d="M 111.7513745106137 117.40417183066458 l 9.675515321626657 14.329756153693033 a38.29038773895298,38.29038773895298 0 0,0 -0.5494220295620758,0.36412696212617274 l -9.427418593324617 -14.494181136910525" fill="#ffd614" stroke="none" /><path d="M 111.45004920935366 117.60387380957326 l 9.275186808895288 14.260132437738921 a38.01118653950273,38.01118653950273 0 0,0 -0.5515571554464402,0.3520298726295208 l -9.028347851401916 -14.41767673919225" fill="#ffd313" stroke="none" /><line stroke="#e1ed5e" stroke-width="0.3" x1="143.8653032363475" x2="146.44561519142675" y1="172.8068346515853" y2="177.08958963109032" /><path d="M 144.38136562736335 173.6633856474863 a86.0,86.0 0 0,1 -40.68145358897372,12.25698825130547" fill="none" id="id30" stroke="none" /><text fill="#e1ed5e" style="font-size:6.75px; font-family:Arial;" text-anchor="middle"><textPath startOffset="21.466115282336833" xlink:href="#id30">June</textPath></text><path d="M 110.8373102113329 117.98757091392108 l 11.263999305086625 18.695781732142887 a42.82681687559869,42.82681687559869 0 0,0 -0.6347181615842948,0.37500267767615375 l -10.940513272473948 -18.88690298211279" fill="#efff19" stroke="none" /><path d="M 110.5260780823613 118.17145234162733 l 8.576226343794529 14.805370723823405 a38.10995793594603,38.10995793594603 0 0,0 -0.5704720128450413,0.32392889729839247 l -8.320105564028289 -14.950802786916425" fill="#ffd413" stroke="none" /><path d="M 109.89434966115114 118.52300852407294 l 5.623720716780972 10.528051902485545 a32.935916871433925,32.935916871433925 0 0,0 -0.5023654194072079,0.2628138441778423 l -5.441664394847269 -10.623295165608104" fill="#ff900d" stroke="none" /><path d="M 109.57404056367764 118.69057910512821 l 5.6123896888659 10.956587529670928 a33.31039107075924,33.31039107075924 0 0,0 -0.5125772718130912,0.25701688501669634 l -5.422958509370048 -11.051572255596927" fill="#ff950d" stroke="none" /><path d="M 109.2508944713604 118.85261126421891 l 7.460279455530377 15.203475613409537 a37.93521302736246,37.93521302736246 0 0,0 -0.5886954934442841,0.28260961181947786 l -7.19747129408586 -15.329639501728575" fill="#ffd213" stroke="none" /><path d="M 108.59647513512805 119.15986991738527 l 5.672064875333617 12.641928635409641 a34.85607013452168,34.85607013452168 0 0,0 -0.5495297230580692,0.2408976813987441 l -5.453614477617794 -12.73769087010284" fill="#ffaa0f" stroke="none" /><path d="M 106.91757812671514 119.82793768551818 l 5.590645415206887 16.02453443734194 a37.97177127150056,37.97177127150056 0 0,0 -0.6189946000104437,0.20999657607903502 l -5.313981082259216 -16.1183940003191" fill="#ffd213" stroke="none" /><path d="M 106.57524785965236 119.94407469862006 l 4.064170076614939 12.32746100619091 a33.98012994044396,33.98012994044396 0 0,0 -0.5570777823586243,0.17835871397468628 l -3.8513709491653745 -12.395592566825302" fill="#ff9e0e" stroke="none" /><path d="M 105.88484417918355 120.15858648285463 l 6.4436319183694755 22.072718891964747 a43.99402773728708,43.99402773728708 0 0,0 -0.7287690971116014,0.20595742632149314 l -6.062731653153268 -22.18036511162476" fill="#e1ff1b" stroke="none" /><path d="M 105.53697534728816 120.25689768951611 l 5.014777992994958 18.346450610347848 a40.01947024280538,40.01947024280538 0 0,0 -0.6660565392133984,0.1759115856999399 l -4.698231010970062 -18.43005354535137" fill="#ffec16" stroke="none" /><path d="M 105.18746579009965 120.34920634021253 l 5.468692070511663 21.452390792882333 a43.13846570321936,43.13846570321936 0 0,0 -0.7211246041110857,0.17723488281605435 l -5.098614181657366 -21.54334693401242" fill="#ecff1a" stroke="none" /><path d="M 104.83641907484287 120.43548508189849 l 3.923681188218278 16.57886282126317 a38.036841447669815,38.036841447669815 0 0,0 -0.638439056716288,0.14530665072951388 l -3.637721982109128 -16.643946205570366" fill="#ffd313" stroke="none" /><path d="M 104.13013068566511 120.58985236759428 l 4.375571670021257 21.813444069036123 a43.247965515805255,43.247965515805255 0 0,0 -0.7311632553331909,0.14012917806782035 l -3.9994408001163615 -21.88553044545241" fill="#eaff1a" stroke="none" /><path d="M 101.62511606390274 120.93702456842531 l 0.13203433499068978 1.7010514984000722 a22.706168006330433,22.706168006330433 0 0,0 -0.38993760681394224,0.02689238038137137 l -0.10273396739781722 -1.7030722232977287" fill="#ff0000" stroke="none" /><line stroke="#e1ed5e" stroke-width="0.3" x1="102.19456741930631" x2="102.32365962044197" y1="184.97166512339345" y2="189.96999836594603" /><path d="M 102.22038585953345 185.97133177190398 a86.0,86.0 0 0,1 -42.740103519485714,-10.115201625700543" fill="none" id="id31" stroke="none" /><text fill="#e1ed5e" style="font-size:6.75px; font-family:Arial;" text-anchor="middle"><textPath startOffset="22.20632615414155" xlink:href="#id31">July</textPath></text><path d="M 95.86986931433489 120.58985236759428 l -3.0456882809839767 15.183604790237634 a36.486060555578696,36.486060555578696 0 0,0 -0.614718083969914,-0.12882015128787677 l 3.3065978263832774 -15.128928658223217" fill="#ffbf11" stroke="none" /><path d="M 95.51606077576429 120.51570834832081 l -3.7057906109556438 16.955385782970858 a38.355632834950654,38.355632834950654 0 0,0 -0.6437898919812199,-0.14652448341498442 l 3.9971006523297263 -16.889084565978187" fill="#ffd714" stroke="none" /><path d="M 95.16358092515715 120.4354850818985 l -3.8727273415660624 16.363565809773263 a37.8155970180334,37.8155970180334 0 0,0 -0.6321448151740509,-0.15536581556284015 l 4.153825441483324 -16.29447873589639" fill="#ffd013" stroke="none" /><path d="M 94.46302465271185 120.25689768951611 l -4.328991853921184 15.837517702978225 a37.418499854233474,37.418499854233474 0 0,0 -0.6198442778842796,-0.17517418438724072 l 4.600967299910077 -15.760654725252463" fill="#ffcb12" stroke="none" /><path d="M 94.11515582081647 120.15858648285463 l -4.955007264022496 16.97342179565213 a38.68188746824372,38.68188746824372 0 0,0 -0.6375604423164473,-0.1920917312818884 l 5.246442680779189 -16.885614695264515" fill="#ffdb14" stroke="none" /><path d="M 93.76903079525671 120.05430185196036 l -5.238449933642206 16.859890131646157 a38.65494981466828,38.65494981466828 0 0,0 -0.6337178156081523,-0.20289643240870414 l 5.527889094341298 -16.767220852577747" fill="#ffdb14" stroke="none" /><path d="M 92.40401165467489 119.57807347666478 l -6.9530926926921675 17.921059569735533 a40.22263962350589,40.22263962350589 0 0,0 -0.6433303293094895,-0.2559944148571021 l 7.260544098043516 -17.798718310472363" fill="#ffef16" stroke="none" /><path d="M 92.06813273071674 119.44442032107085 l -6.584959501299892 16.142569711970765 a38.43399691807922,38.43399691807922 0 0,0 -0.6104207094174283,-0.2551559060430713 l 6.861851670214782 -16.02682876290772" fill="#ffd814" stroke="none" /><path d="M 91.7346041902142 119.30500536409082 l -6.464261725593455 15.098201000818465 a37.423834909000036,37.423834909000036 0 0,0 -0.590012286351987,-0.2586440474739235 l 6.723194686603186 -14.98469240005009" fill="#ffcb12" stroke="none" /><path d="M 91.40352486487194 119.15986991738527 l -5.199069587749226 11.587714199934718 a33.70060805464162,33.70060805464162 0 0,0 -0.527225157526098,-0.24202321105921873 l 5.397762741042744 -11.496503918541425" fill="#ff9b0e" stroke="none" /><path d="M 91.07499286063937 119.00905698771935 l -13.610347816202111 28.988198353351862 a53.0243221856649,53.0243221856649 0 0,0 -0.822854994675329,-0.39502040225984053 l 14.107315478877682 -28.74962367459246" fill="#7bff26" stroke="none" /><path d="M 90.42595943632237 118.69057910512821 l -8.572443311310492 16.735246604462883 a39.80306526175502,39.80306526175502 0 0,0 -0.6071087576510356,-0.3176106082711261 l 8.859242971488023 -16.585206577247043" fill="#ffe915" stroke="none" /><path d="M 90.10565033884886 118.52300852407294 l -6.026346148552051 11.281798693341997 a33.79045853983591,33.79045853983591 0 0,0 -0.5106819389067812,-0.2784645110306027 l 6.219650899327473 -11.17639353055163" fill="#ff9c0e" stroke="none" /><line stroke="#e1ed5e" stroke-width="0.3" x1="58.666819895761336" x2="56.23545636021788" y1="174.27360380694188" y2="178.64263932499728" /><path d="M 58.180547188652646 175.14741091055294 a86.0,86.0 0 0,1 -31.652253787137756,-30.449443065178592" fill="none" id="id32" stroke="none" /><text fill="#e1ed5e" style="font-size:6.75px; font-family:Arial;" text-anchor="middle"><textPath startOffset="22.20632615414155" xlink:href="#id32">August</textPath></text><path d="M 89.7882731507175 118.34994917583269 l -7.809214427751246 14.032757629282196 a37.05933113989421,37.05933113989421 0 0,0 -0.5547450686143356,-0.31499872791616607 l 8.049608263286789 -13.896255735571398" fill="#ffc712" stroke="none" /><path d="M 89.1626897886671 117.98757091392108 l -4.5787421252712415 7.599713127040263 a29.872458456540752,29.872458456540752 0 0,0 -0.43815897875107396,-0.26915303162703125 l 4.708880303954624 -7.519771628584854" fill="#ff6709" stroke="none" /><path d="M 88.8546689885994 117.79835938074946 l -9.08533319716703 14.508678582235436 a38.118558160842944,38.118558160842944 0 0,0 -0.5531151595876953,-0.35302426458688474 l 9.333730158801648 -14.350139888824748" fill="#ffd413" stroke="none" /><path d="M 88.54995079064634 117.60387380957326 l -8.763572293531135 13.47355089534178 a37.0728582732914,37.0728582732914 0 0,0 -0.5319519137033444,-0.3525487219513039 l 8.994198905974441 -13.32070415229916" fill="#ffc712" stroke="none" /><path d="M 88.24862548938628 117.40417183066458 l -9.626981539653015 14.257876027644931 a38.20365665736537,38.20365665736537 0 0,0 -0.54184267226796,-0.37268433077116997 l 9.870981096543865 -14.09005090750866" fill="#ffd513" stroke="none" /><path d="M 87.95078237400918 117.19931262002967 l -11.325324490924423 16.16601197595765 a40.738361584273875,40.738361584273875 0 0,0 -0.5708660248791679,-0.4072977513182534 l 11.601917843652478 -15.968669962795179" fill="#fff517" stroke="none" /><path d="M 87.65650970185807 116.9893568818739 l -9.879127616806036 13.597452641799304 a37.807375786098035,37.807375786098035 0 0,0 -0.5232091253558732,-0.3870576027746724 l 10.111721712580474 -13.425385090284864" fill="#ffd013" stroke="none" /><path d="M 87.07902340077011 116.55440617244103 l -21.049301035332817 26.968447493794844 a55.21067427429095,55.21067427429095 0 0,0 -0.7441413178743127,-0.5911908680570205 l 21.510399845924486 -26.602122711732694" fill="#64ff29" stroke="none" /><path d="M 86.79598089348748 116.32954008644616 l -11.830660341088164 14.631093815491576 a39.81577610261964,39.81577610261964 0 0,0 -0.5292272602579844,-0.4355180055838737 l 12.080757729890838 -14.425280691050522" fill="#ffea15" stroke="none" /><path d="M 86.24171649860922 115.8653595955263 l -8.331331792612623 9.607272214304812 a33.716554912331844,33.716554912331844 0 0,0 -0.4351966686967858,-0.38401046067588723 l 8.495470814215997 -9.462438611856637" fill="#ff9b0e" stroke="none" /><path d="M 85.70375840098266 115.38237550388516 l -15.172021107075917 16.324690948000967 a43.28644787805589,43.28644787805589 0 0,0 -0.541418986384521,-0.5119454452957944 l 15.450775927851254 -16.06111086595924" fill="#eaff1a" stroke="none" /><path d="M 85.44109423537348 115.13401014063109 l -10.700077220348492 11.122750553942057 a36.433963600016654,36.433963600016654 0 0,0 -0.4482245824382325,-0.4386820926850978 l 10.88995175516252 -10.936918358334388" fill="#ffbe11" stroke="none" /><path d="M 85.18274418774928 114.88116024355367 l -12.083469749329657 12.135583802854919 a38.12549664736996,38.12549664736996 0 0,0 -0.4610632046673065,-0.46705459210686767 l 12.290573579052497 -11.925788716767387" fill="#ffd413" stroke="none" /><path d="M 84.9287848128048 114.62390073753433 l -8.487797566483986 8.23587929379484 a32.82676689850485,32.82676689850485 0 0,0 -0.3900030133612885,-0.40891660029781063 l 8.628307131224231 -8.088555576914528" fill="#ff8f0d" stroke="none" /><path d="M 84.43433777217949 114.09645910891817 l -18.54142580802809 16.7913479618467 a46.0146724417975,46.0146724417975 0 0,0 -0.5266294908436437,-0.5916738157237403 l 18.827714148520073 -16.469699976382095" fill="#caff1d" stroke="none" /><path d="M 84.19399662182784 113.82643327865904 l -12.582595076064981 11.006729982852542 a37.71735038107534,37.71735038107534 0 0,0 -0.42325600649732603,-0.49234235706673013 l 12.770193592133086 -10.78851052662428" fill="#ffcf13" stroke="none" /><path d="M 83.72743513129214 113.27417163493432 l -13.858280370424366 11.304744745913043 a38.88432801632585,38.88432801632585 0 0,0 -0.41862143172736266,-0.5222946020675527 l 14.050819714206588 -11.06452231026723" fill="#ffde14" stroke="none" /><path d="M 83.50135304334701 112.99209946851258 l -15.340674785304438 12.080237443010954 a40.52609637249594,40.52609637249594 0 0,0 -0.4268617258266509,-0.5517763221706512 l 15.546343328349158 -11.81438312672705" fill="#fff216" stroke="none" /><path d="M 83.06392112726016 112.41649034213515 l -17.193013152752197 12.604858737813313 a42.318587314147685,42.318587314147685 0 0,0 -0.42564479994596466,-0.5911833991787004 l 17.407437745073768 -12.307041733183473" fill="#f6ff19" stroke="none" /><path d="M 82.44556493220864 111.52570212397912 l -16.574030360536018 10.881998548607163 a40.82716255049769,40.82716255049769 0 0,0 -0.38065523188106,-0.5907853731234382 l 16.758890455794123 -10.595091575562277" fill="#fff617" stroke="none" /><path d="M 82.24976979558568 111.22182372390057 l -29.533694146564283 18.671414725985734 a55.94081879138728,55.94081879138728 0 0,0 -0.5075573364612647,-0.8183440361497686 l 29.850716122693505 -18.1602743584707" fill="#5cff2a" stroke="none" /><line stroke="#e1ed5e" stroke-width="0.3" x1="26.63291911575756" x2="22.317208475507996" y1="142.92168965132927" y2="145.44649492493687" /><path d="M 25.769776987707644 143.4266507060508 a86.0,86.0 0 0,1 -11.730757126820373,-40.83630448921669" fill="none" id="id33" stroke="none" /><text fill="#e1ed5e" style="font-size:6.75px; font-family:Arial;" text-anchor="middle"><textPath startOffset="21.46611528233685" xlink:href="#id33">September</textPath></text><path d="M 81.87401531095188 110.60418214915194 l -21.234727071642762 12.42287895626886 a45.6016575736121,45.6016575736121 0 0,0 -0.3905412898455698,-0.680941657669047 l 21.445420357640707 -12.055517452741507" fill="#ceff1d" stroke="none" /><path d="M 81.69416730710424 110.29060199501025 l -10.979077732866322 6.171875440828937 a33.594927324976055,33.594927324976055 0 0,0 -0.27903561182084197,-0.5065306868271426 l 11.08368975413868 -5.981974235603972" fill="#ff990e" stroke="none" /><path d="M 81.35079622478065 109.6543875284942 l -15.219736546476058 7.879008480593296 a38.138236641539294,38.138236641539294 0 0,0 -0.2967905411412617,-0.5855958941976515 l 15.353105757403588 -7.61585837469296" fill="#ffd413" stroke="none" /><path d="M 81.18737489456691 109.33194174019688 l -17.98234986390931 8.92008639630922 a41.07318728915914,41.07318728915914 0 0,0 -0.3087270882879757,-0.6360692438162304 l 18.133230208812005 -8.609228196527706" fill="#fff917" stroke="none" /><path d="M 81.02952815118164 109.00673069616217 l -15.175192367740165 7.204821894148332 a37.79868810128691,37.79868810128691 0 0,0 -0.27399617996048975,-0.5901633957904072 l 15.29696316454048 -6.942538431079098" fill="#ffd013" stroke="none" /><path d="M 80.87730276802145 108.67885076344099 l -15.17059880539367 6.885187870039045 a37.65991837074674,37.65991837074674 0 0,0 -0.26282841835834225,-0.5926086987220258 l 15.286868308483292 -6.623030834824323" fill="#ffce13" stroke="none" /><path d="M 80.58989483394504 108.01547362559985 l -21.17294787712972 8.743445943926684 a43.90723834909001,43.90723834909001 0 0,0 -0.2824644341018966,-0.7010535607012618 l 21.320314925489004 -8.377693015382617" fill="#e2ff1b" stroke="none" /><path d="M 80.0844068197444 106.66101706037122 l -23.205939033946326 7.761514026119865 a45.46950564324684,45.46950564324684 0 0,0 -0.2418712439433835,-0.7444031456006542 l 23.336102528905958 -7.360911980541408" fill="#d0ff1d" stroke="none" /><path d="M 79.86692584326677 105.97154293290107 l -14.133567309919602 4.192067407550175 a35.742155678647286,35.742155678647286 0 0,0 -0.16987287191867367,-0.5913497523760454 l 14.20363281872438 -3.948160179669533" fill="#ffb510" stroke="none" /><path d="M 79.23777060512086 103.15116336523772 l -24.240874881584634 3.6791307626627576 a45.518483195202194,45.518483195202194 0 0,0 -0.11090458995083384,-0.7756664438089118 l 24.30061352255207 -3.261318846873445" fill="#cfff1d" stroke="none" /><path d="M 79.18660465613746 102.79330883721812 l -25.894160322781634 3.4751844024957523 a47.12631710466036,47.12631710466036 0 0,0 -0.10098157830781725,-0.8049225357744422 l 25.9501434103363 -3.028944112433902" fill="#bdff1f" stroke="none" /><path d="M 79.04373962182676 101.35467743843564 l -13.280153236944377 0.8584701489868022 a34.30787139227854,34.30787139227854 0 0,0 -0.03302320352948619,-0.5896514827523636 l 13.292962791361395 -0.629746949899001" fill="#ffa30f" stroke="none" /><line stroke="#e1ed5e" stroke-width="0.3" x1="15.007084014347285" x2="10.007500721073583" y1="101.09737516637583" y2="101.16192664675087" /><path d="M 14.007167355692545 101.11028546245083 a86.0,86.0 0 0,1 10.666146001902534,-42.60595125391555" fill="none" id="id34" stroke="none" /><text fill="#e1ed5e" style="font-size:6.75px; font-family:Arial;" text-anchor="middle"><textPath startOffset="22.20632615414155" xlink:href="#id34">October</textPath></text><path d="M 79.00019446554 99.90962569577889 l -62.99941660337998 -0.27112291266336075 a84.0,84.0 0 0,0 0.018667971529137795,-1.445854967758112 l 62.98541562473312 1.3555141384819447" fill="#4dd2ff" stroke="none" /><path d="M 79.3925641242962 95.95851677861259 l -22.95878284453749 -4.502624014425398 a44.39613926950148,44.39613926950148 0 0,0 0.15352756630510267,-0.7486549375090673 l 22.877875982317395 4.897154608097867" fill="#ddff1b" stroke="none" /><path d="M 80.02781315780177 93.51064311812611 l -16.947149010864877 -5.506462508624011 a38.81928699346133,38.81928699346133 0 0,0 0.2119583095485959,-0.6337283669874384 l 16.849853407544508 5.797363978533771" fill="#ffdd14" stroke="none" /><path d="M 80.14247586403 93.16781622104843 l -46.192802941980446 -15.89310514259077 a69.85044354670777,69.85044354670777 0 0,0 0.40096456064875907,-1.133580807422477 l 45.912385300521876 16.68588357643986" fill="#3bff9d" stroke="none" /><path d="M 80.65960295795068 91.81776055985345 l -21.892884826254488 -9.26210694095369 a44.771517221273584,44.771517221273584 0 0,0 0.30638490281597247,-0.7071785981167737 l 21.730209213595835 9.637584683657062" fill="#d8ff1c" stroke="none" /><path d="M 80.95270993114464 91.15688171328213 l -26.520984160537335 -12.312943162202636 a50.23989005039357,50.23989005039357 0 0,0 0.3709182521240398,-0.7812484349210373 l 26.305107714571545 12.767634012764205" fill="#99ff23" stroke="none" /><line stroke="#e1ed5e" stroke-width="0.3" x1="26.266209847984243" x2="21.928928074336255" y1="57.711370442889674" y2="55.22380399835377" /><path d="M 25.398753493254645 57.213857153982495 a86.0,86.0 0 0,1 29.58750427330803,-30.492523968695096" fill="none" id="id35" stroke="none" /><text fill="#e1ed5e" style="font-size:6.75px; font-family:Arial;" text-anchor="middle"><textPath startOffset="21.46611528233685" xlink:href="#id35">November</textPath></text><path d="M 81.96595687620814 89.24020034530311 l -14.461683769976444 -8.628393475961175 a37.84011494731581,37.84011494731581 0 0,0 0.3385504661730582,-0.5564879505371337 l 14.31101750551717 8.876049199705383" fill="#ffd113" stroke="none" /><path d="M 82.34701348167596 88.62581576622439 l -18.287124592745705 -11.782772507529549 a42.75437091333139,42.75437091333139 0 0,0 0.40393385916001984,-0.6152189798098763 l 18.081594098227765 12.09580955131709" fill="#f0ff19" stroke="none" /><path d="M 83.39014120810768 87.1503855733568 l -21.319109900702696 -16.492755632394616 a47.95395027279163,47.95395027279163 0 0,0 0.5107002522814037,-0.6485374579747688 l 21.03205556782732 16.857285484322432" fill="#b3ff20" stroke="none" /><line stroke="#e1ed5e" stroke-width="0.3" x1="56.762969772571076" x2="54.21961505331055" y1="26.818313649435495" y2="22.513508569990535" /><path d="M 56.25429882871897 25.957352633546506 a86.0,86.0 0 0,1 42.265352541879196,-11.944610805530505" fill="none" id="id36" stroke="none" /><text fill="#e1ed5e" style="font-size:6.75px; font-family:Arial;" text-anchor="middle"><textPath startOffset="22.20632615414155" xlink:href="#id36">December</textPath></text><path d="M 93.59665428221793 80.00007090966166 l -3.1909699473862987 -9.966535540928383 a31.464899421098664,31.464899421098664 0 0,0 0.517244929826142,-0.16071051751628346 l 3.018939644849428 10.019986193327192" fill="#ff7c0b" stroke="none" /><path d="M 95.33964822691252 79.52364482259891 l -5.273366628572902 -23.169780592716194 a44.76230477697722,44.76230477697722 0 0,0 0.7527682674117672,-0.16452598680483235 l 4.873755637007615 23.257120077616893" fill="#d8ff1c" stroke="none" /></svg>