<?xml version="1.0" encoding="utf-8" ?>
<svg baseProfile="full" height="200mm" version="1.1" viewBox="0,0,200,200" width="200mm" xmlns="http://www.w3.org/2000/svg" xmlns:ev="http://www.w3.org/2001/xml-events" xmlns:xlink="http://www.w3.org/1999/xlink"><defs /><rect fill="#1a1a1a" height="200" width="200" x="0" y="0" /><text alignment-baseline="middle" fill="#e1ed5e" style="dominant-baseline: central; font-size:9.0px; font-family:Arial;" text-anchor="middle" x="100.0" y="100.0">2021</text><line stroke="#e1ed5e" stroke-width="0.3" x1="100.0" x2="100.0" y1="15.0" y2="10.0" /><path d="M 100.0 14.0 a86.0,86.0 0 0,1 42.46469731375804,11.215312516191453" fill="none" id="id61" stroke="none" /><text fill="#e1ed5e" style="font-size:6.75px; font-family:Arial;" text-anchor="middle"><textPath startOffset="22.20632615414155" xlink:href="#id61">January</textPath></text><path d="M 100.0 79.0 l 0.0 -51.06522855409 a72.06522855409,72.06522855409 0 0,0 1.2404844455531785,0.010677241257792586 l -0.8790039662806501 51.05766268944076" fill="#3effb3" stroke="none" /><path d="M 100.36148047927253 79.00311137660856 l 0.09669887337901369 -5.616832970988277 a26.617665288720374,26.617665288720374 0 0,0 0.4580435842210311,0.011829914420225048 l -0.19336909279491254 5.614336264425693" fill="#ff2703" stroke="none" /><path d="M 100.72285384407766 79.0124445844662 l 0.24472647512664564 -7.10546191384287 a28.109675102049284,28.109675102049284 0 0,0 0.48343175531725957,0.020817588309671613 l -0.3669990628332368 7.100196599009004" fill="#ff3c05" stroke="none" /><path d="M 101.80526077348638 79.07773832637324 l 0.5225849736992488 -6.056554115074256 a27.07905772332844,27.07905772332844 0 0,0 0.4640510693666078,0.04406724060651464 l -0.6267611701561009 6.046661329952563" fill="#ff2d04" stroke="none" /><path d="M 102.16513564639614 79.11191278185805 l 0.685617678347337 -6.614477890776437 a27.649916493342808,27.649916493342808 0 0,0 0.4729890785516359,0.05314583408910909 l -0.7993734604086982 6.601696103216727" fill="#ff3605" stroke="none" /><path d="M 102.52436894288641 79.15227682838746 l 0.795632059128454 -6.570797411334049 a27.61879210991758,27.61879210991758 0 0,0 0.4714728660861506,0.061210709379841674 l -0.9086196537224507 6.5561283787900715" fill="#ff3505" stroke="none" /><path d="M 103.95276090670814 79.375362276772 l 1.0813665923779006 -5.642333229906793 a26.745022017749054,26.745022017749054 0 0,0 0.4513968658395993,0.09054596476618654 l -1.1783298676846252 5.622883309063398" fill="#ff2803" stroke="none" /><path d="M 104.307194497241 79.44645832069477 l 1.250461228495454 -5.967087623904539 a27.096703043065578,27.096703043065578 0 0,0 0.4556856110052309,0.09959522481091485 l -1.3529895636542129 5.944678900997753" fill="#ff2e04" stroke="none" /><path d="M 104.66035177308747 79.52364482259891 l 0.6746365536072708 -2.964174886345211 a24.039978163787158,24.039978163787158 0 0,0 0.4026997563789757,0.09530602162759692 l -0.72555999694877 2.952122952576745" fill="#ff0000" stroke="none" /><path d="M 109.41281617654863 81.2277094730956 l 15.7109040960658 -31.33277550521769 a56.051038905803445,56.051038905803445 0 0,0 0.8587539965569948,0.4398871512226785 l -16.24791858021155 31.057695828682508" fill="#61ff29" stroke="none" /><path d="M 109.73455568895987 81.39251694778311 l 16.598841539755917 -31.728480734639867 a56.80807213730362,56.80807213730362 0 0,0 0.8625492951502994,0.4607439614955129 l -17.14253588143453 31.4380580466426" fill="#59ff2a" stroke="none" /><path d="M 110.05341064243156 81.56283822128135 l 23.19518456537439 -42.53813810350948 a69.45110711155141,69.45110711155141 0 0,0 1.0446634154198553,0.5813540596480679 l -23.92397206986628 42.13256864630123" fill="#3aff95" stroke="none" /><path d="M 110.36928655335952 81.73862282372117 l 15.829715021476941 -27.87775177324435 a53.05852338445739,53.05852338445739 0 0,0 0.7903275945344314,0.45780875487078654 l -16.3072393484767 27.601138860983514" fill="#82ff25" stroke="none" /><line stroke="#e1ed5e" stroke-width="0.3" x1="143.23703022742887" x2="145.7803849466894" y1="26.81831364943548" y2="22.513508569990506" /><path d="M 143.74570117128098 25.957352633546492 a86.0,86.0 0 0,1 28.547481713284135,27.462654790039103" fill="none" id="id62" stroke="none" /><text fill="#e1ed5e" style="font-size:6.75px; font-family:Arial;" text-anchor="middle"><textPath startOffset="19.985693538727396" xlink:href="#id62">February</textPath></text><path d="M 114.94478906791727 85.2469230424477 l 14.382534971660867 -14.198035470243727 a41.209936254856096,41.209936254856096 0 0,0 0.4940006498030543,0.5091110935051 l -14.62479988516703 13.948360181188512" fill="#ffef16" stroke="none" /><path d="M 115.19652480421416 85.50635884689758 l 21.04899066231146 -20.07541337411201 a50.08749267371718,50.08749267371718 0 0,0 0.5896792833099008,0.6290287452359804 l -21.391437267591826 19.710115211997977" fill="#a3ff21" stroke="none" /><path d="M 115.4437574822437 85.77008943001954 l 21.569566073763745 -19.8742434680055 a50.3297073636274,50.3297073636274 0 0,0 0.5815630265580061,0.6421764193153912 l -21.908472740937786 19.50001426142056" fill="#a1ff22" stroke="none" /><path d="M 115.9244219780498 86.31012108654704 l 47.773265934149435 -41.069636740358895 a84.0,84.0 0 0,0 0.9331575460515311,1.1045642014835737 l -48.47313409368808 40.241213589246215" fill="#4dd2ff" stroke="none" /><path d="M 116.15771136456269 86.58626213691792 l 35.85434023724043 -29.76539872168434 a67.59949221728328,67.59949221728328 0 0,0 0.7355517098342045,0.9016994236435728 l -36.36139043915104 29.143815128432664" fill="#38ff80" stroke="none" /><path d="M 116.38621287248628 86.86637796730983 l 35.659703327313075 -28.581409807337167 a66.70023444105,66.70023444105 0 0,0 0.7103445360079416,0.9020654241130338 l -36.14640194391498 27.963351989271093" fill="#37ff76" stroke="none" /><path d="M 116.82858285166822 87.43820079747576 l 37.42354078852609 -27.935032258901057 a67.69997251023086,67.69997251023086 0 0,0 0.6890483455826694,0.9398611690066552 l -37.898851746622384 27.286708646222905" fill="#38ff81" stroke="none" /><path d="M 117.04232023915458 87.72973835380427 l 11.163860484257317 -8.037842688153715 a34.756405634884,34.756405634884 0 0,0 0.34539158271321446,0.48853189938745206 l -11.300564686774415 7.8444842884344705" fill="#ff9a0e" stroke="none" /><path d="M 117.2510076193507 88.02491185347247 l 18.12271146106989 -12.580196588456728 a43.061142692648815,43.061142692648815 0 0,0 0.4174378634557571,0.6125385554944356 l -18.33657379019438 12.266380009691884" fill="#f8ff18" stroke="none" /><path d="M 117.65298651832404 88.62581576622439 l 16.8591244839748 -10.86268250994461 a41.05562139845124,41.05562139845124 0 0,0 0.377657765388324,0.5973638901357975 l -17.04360984560908 10.570870972094607" fill="#ffed16" stroke="none" /><line stroke="#e1ed5e" stroke-width="0.3" x1="172.23445277983987" x2="176.4835382374775" y1="55.19839476539836" y2="52.563006222186495" /><path d="M 173.08426987136738 54.67131705675599 a86.0,86.0 0 0,1 12.851231095245387,41.99856678651699" fill="none" id="id63" stroke="none" /><text fill="#e1ed5e" style="font-size:6.75px; font-family:Arial;" text-anchor="middle"><textPath startOffset="22.20632615414155" xlink:href="#id63">March</textPath></text><path d="M 118.03404312379186 89.2402003453031 l 19.479182661610018 -11.622025157501131 a43.68281344820253,43.68281344820253 0 0,0 0.3797083327088978,0.6490446248639675 l -19.676350668789244 11.285001120283269" fill="#f0ff19" stroke="none" /><path d="M 118.21658344932153 89.55222093294921 l 40.74205372701282 -23.36683919143998 a67.96726642773044,67.96726642773044 0 0,0 0.5733277090435144,1.0198860207634826 l -41.138239077348764 22.662069660741704" fill="#38ff84" stroke="none" /><path d="M 118.3937258080291 89.86733742301442 l 43.500695489222124 -23.963490260580134 a70.66446791736472,70.66446791736472 0 0,0 0.5777388959261028,1.0704624308193849 l -43.906742484366696 23.211146846428292" fill="#3cffa3" stroke="none" /><path d="M 118.56541770881063 90.18545643968196 l 22.9414576523168 -12.127921870510908 a46.94989341231023,46.94989341231023 0 0,0 0.37155378091733127,0.7177236415390916 l -23.146820866394247 11.731225506711473" fill="#c8ff1d" stroke="none" /><path d="M 118.73160827565052 90.50648371742162 l 32.51884299772384 -16.481135039045665 a57.45686440282366,57.45686440282366 0 0,0 0.4395176168289228,0.886040695798593 l -32.797720627506166 15.918934754748122" fill="#53ff2b" stroke="none" /><path d="M 119.04729006885535 91.15688171328212 l 42.91123305336133 -19.92247234898106 a68.3104515583587,68.3104515583587 0 0,0 0.48597253285744346,1.0707760580510521 l -43.24780790318212 19.180874282087945" fill="#39ff88" stroke="none" /><line stroke="#e1ed5e" stroke-width="0.3" x1="184.98032266829074" x2="189.97916517819016" y1="98.17113171792111" y2="98.06355123074" /><path d="M 185.9800911702706 98.14961562048488 a86.0,86.0 0 0,1 -9.607161424134198,41.387399972396054" fill="none" id="id64" stroke="none" /><text fill="#e1ed5e" style="font-size:6.75px; font-family:Arial;" text-anchor="middle"><textPath startOffset="21.466115282336823" xlink:href="#id64">April</textPath></text><line stroke="#e1ed5e" stroke-width="0.3" x1="174.80103733775053" x2="179.2010983576182" y1="140.37084112569926" y2="142.7455964860345" /><path d="M 175.68104954172406 140.8457921977663 a86.0,86.0 0 0,1 -30.038265399797805,32.042727171017184" fill="none" id="id65" stroke="none" /><text fill="#e1ed5e" style="font-size:6.75px; font-family:Arial;" text-anchor="middle"><textPath startOffset="22.206326154141568" xlink:href="#id65">May</textPath></text><line stroke="#e1ed5e" stroke-width="0.3" x1="143.8653032363475" x2="146.44561519142675" y1="172.8068346515853" y2="177.08958963109032" /><path d="M 144.38136562736335 173.6633856474863 a86.0,86.0 0 0,1 -40.68145358897372,12.25698825130547" fill="none" id="id66" stroke="none" /><text fill="#e1ed5e" style="font-size:6.75px; font-family:Arial;" text-anchor="middle"><textPath startOffset="21.466115282336833" xlink:href="#id66">June</textPath></text><line stroke="#e1ed5e" stroke-width="0.3" x1="102.19456741930631" x2="102.32365962044197" y1="184.97166512339345" y2="189.96999836594603" /><path d="M 102.22038585953345 185.97133177190398 a86.0,86.0 0 0,1 -42.740103519485714,-10.115201625700543" fill="none" id="id67" stroke="none" /><text fill="#e1ed5e" style="font-size:6.75px; font-family:Arial;" text-anchor="middle"><textPath startOffset="22.20632615414155" xlink:href="#id67">July</textPath></text><line stroke="#e1ed5e" stroke-width="0.3" x1="58.666819895761336" x2="56.23545636021788" y1="174.27360380694188" y2="178.64263932499728" /><path d="M 58.180547188652646 175.14741091055294 a86.0,86.0 0 0,1 -31.652253787137756,-30.449443065178592" fill="none" id="id68" stroke="none" /><text fill="#e1ed5e" style="font-size:6.75px; font-family:Arial;" text-anchor="middle"><textPath startOffset="22.20632615414155" xlink:href="#id68">August</textPath></text><line stroke="#e1ed5e" stroke-width="0.3" x1="26.63291911575756" x2="22.317208475507996" y1="142.92168965132927" y2="145.44649492493687" /><path d="M 25.769776987707644 143.4266507060508 a86.0,86.0 0 0,1 -11.730757126820373,-40.83630448921669" fill="none" id="id69" stroke="none" /><text fill="#e1ed5e" style="font-size:6.75px; font-family:Arial;" text-anchor="middle"><textPath startOffset="21.46611528233685" xlink:href="#id69">September</textPath></text><line stroke="#e1ed5e" stroke-width="0.3" x1="15.007084014347285" x2="10.007500721073583" y1="101.09737516637583" y2="101.16192664675087" /><path d="M 14.007167355692545 101.11028546245083 a86.0,86.0 0 0,1 10.666146001902534,-42.60595125391555" fill="none" id="id70" stroke="none" /><text fill="#e1ed5e" style="font-size:6.75px; font-family:Arial;" text-anchor="middle"><textPath startOffset="22.20632615414155" xlink:href="#id70">October</textPath></text><line stroke="#e1ed5e" stroke-width="0.3" x1="26.266209847984243" x2="21.928928074336255" y1="57.711370442889674" y2="55.22380399835377" /><path d="M 25.398753493254645 57.213857153982495 a86.0,86.0 0 0,1 29.58750427330803,-30.492523968695096" fill="none" id="id71" stroke="none" /><text fill="#e1ed5e" style="font-size:6.75px; font-family:Arial;" text-anchor="middle"><textPath startOffset="21.46611528233685" xlink:href="#id71">November</textPath></text><line stroke="#e1ed5e" stroke-width="0.3" x1="56.762969772571076" x2="54.21961505331055" y1="26.818313649435495" y2="22.513508569990535" /><path d="M 56.25429882871897 25.957352633546506 a86.0,86.0 0 0,1 42.265352541879196,-11.944610805530505" fill="none" id="id72" stroke="none" /><text fill="#e1ed5e" style="font-size:6.75px; font-family:Arial;" text-anchor="middle"><textPath startOffset="22.20632615414155" xlink:href="#id72">December</textPath></text></svg>