<?xml version="1.0" encoding="utf-8" ?>
<svg baseProfile="full" height="200mm" version="1.1" viewBox="0,0,200,200" width="200mm" xmlns="http://www.w3.org/2000/svg" xmlns:ev="http://www.w3.org/2001/xml-events" xmlns:xlink="http://www.w3.org/1999/xlink"><defs /><rect fill="#1a1a1a" height="200" width="200" x="0" y="0" /><text alignment-baseline="middle" fill="#e1ed5e" style="dominant-baseline: central; font-size:9.0px; font-family:Arial;" text-anchor="middle" x="100.0" y="100.0">2017</text><line stroke="#e1ed5e" stroke-width="0.3" x1="100.0" x2="100.0" y1="15.0" y2="10.0" /><path d="M 100.0 14.0 a86.0,86.0 0 0,1 42.46469731375804,11.215312516191453" fill="none" id="id13" stroke="none" /><text fill="#e1ed5e" style="font-size:6.75px; font-family:Arial;" text-anchor="middle"><textPath startOffset="22.20632615414155" xlink:href="#id13">January</textPath></text><line stroke="#e1ed5e" stroke-width="0.3" x1="143.23703022742887" x2="145.7803849466894" y1="26.81831364943548" y2="22.513508569990506" /><path d="M 143.74570117128098 25.957352633546492 a86.0,86.0 0 0,1 28.547481713284135,27.462654790039103" fill="none" id="id14" stroke="none" /><text fill="#e1ed5e" style="font-size:6.75px; font-family:Arial;" text-anchor="middle"><textPath startOffset="19.985693538727396" xlink:href="#id14">February</textPath></text><path d="M 110.68208982089419 81.91981866633111 l 8.663453287052691 -14.663498344612345 a38.03154739180774,38.03154739180774 0 0,0 0.5607623691878736,0.3378530530227199 l -8.914577722458203 14.512198682131011" fill="#ffb711" stroke="none" /><path d="M 111.2981086023043 82.29822771554956 l 5.2888809081652095 -8.28656979424178 a30.830539161998935,30.830539161998935 0 0,0 0.44488904661594114,0.28936821131294255 l -5.430736980565431 8.19430265876931" fill="#ff5107" stroke="none" /><path d="M 113.06298171725822 83.55741782278167 l 3.6964677895264684 -4.652802607419287 a26.942427637137403,26.942427637137403 0 0,0 0.3606392782486405,0.29161188222970164 l -3.7760104663396 4.588484627925456" fill="#ff1702" stroke="none" /><path d="M 113.34407831869373 83.78471172551755 l 8.50361485457542 -10.333315119182375 a34.38240886190819,34.38240886190819 0 0,0 0.45375359415561456,0.38000558585054184 l -8.680225985690154 10.185408375938014" fill="#ff840c" stroke="none" /><path d="M 113.6212207817346 84.01681056812373 l 12.652608214782884 -14.846615963773813 a40.50667834903151,40.50667834903151 0 0,0 0.5267916692067314,0.45682854444476845 l -12.90629368263638 14.626622425909373" fill="#ffd814" stroke="none" /><line stroke="#e1ed5e" stroke-width="0.3" x1="172.23445277983987" x2="176.4835382374775" y1="55.19839476539836" y2="52.563006222186495" /><path d="M 173.08426987136738 54.67131705675599 a86.0,86.0 0 0,1 12.851231095245387,41.99856678651699" fill="none" id="id15" stroke="none" /><text fill="#e1ed5e" style="font-size:6.75px; font-family:Arial;" text-anchor="middle"><textPath startOffset="22.20632615414155" xlink:href="#id15">March</textPath></text><path d="M 118.3937258080291 89.86733742301442 l 8.808543879899492 -4.852415647657011 a31.056658635040836,31.056658635040836 0 0,0 0.2539131787130209,0.47046255742660453 l -8.890765157830979 4.700072106897949" fill="#ff5407" stroke="none" /><path d="M 120.28053869075195 94.5502522615342 l 20.834155448653647 -5.598514579443613 a42.573256563507215,42.573256563507215 0 0,0 0.184086088580627,0.7093587927427162 l -20.927437869104576 5.239059361152046" fill="#fff417" stroke="none" /><path d="M 120.78858239683441 97.02765380044208 l 18.366797440115107 -2.626080005219077 a39.55358575585944,39.55358575585944 0 0,0 0.09056641213098582,0.6748249658046093 l -18.40927985130393 2.3095366973498033" fill="#ffcc13" stroke="none" /><line stroke="#e1ed5e" stroke-width="0.3" x1="184.98032266829074" x2="189.97916517819016" y1="98.17113171792111" y2="98.06355123074" /><path d="M 185.9800911702706 98.14961562048488 a86.0,86.0 0 0,1 -9.607161424134198,41.387399972396054" fill="none" id="id16" stroke="none" /><text fill="#e1ed5e" style="font-size:6.75px; font-family:Arial;" text-anchor="middle"><textPath startOffset="21.466115282336823" xlink:href="#id16">April</textPath></text><path d="M 120.9904718944345 100.63252640178507 l 14.54039289530964 0.4381598681947682 a35.546993147041334,35.546993147041334 0 0,0 -0.023694385124355954,0.6114467964261203 l -14.530696377334081 -0.6883839116348948" fill="#ff950d" stroke="none" /><path d="M 120.64145759157962 103.86396538481128 l 30.42550978181536 5.695485219034614 a51.954001314266044,51.954001314266044 0 0,0 -0.17211635017218682,0.8776175614347537 l -30.322963498667512 -6.218366507537313" fill="#97ff23" stroke="none" /><path d="M 120.41448212921028 104.9243191809786 l 9.533563793152174 2.299657211609043 a30.807000657133024,30.807000657133024 0 0,0 -0.12878600467623355,0.5144360705772705 l -9.49256647418088 -2.4634211215837096" fill="#ff5107" stroke="none" /><path d="M 119.67450827220406 107.3425965602758 l 59.02352481661219 22.027789680827375 a84.0,84.0 0 0,0 -0.517222881625973,1.3503057326674246 l -58.635607655392704 -23.040518980327946" fill="#4dd2ff" stroke="none" /><path d="M 118.81262510543309 109.33194174019688 l 15.899844172799344 7.887066194495162 a38.74854523265638,38.74854523265638 0 0,0 -0.3015399431317919,0.5949669149008425 l -15.761725559881283 -8.1595873210987" fill="#ffc111" stroke="none" /><path d="M 118.64920377521936 109.65438752849418 l 20.504483546728004 10.614835497416113 a44.089144162468315,44.089144162468315 0 0,0 -0.3547023962266723,0.6709632605727469 l -20.31872864227644 -10.966213773074994" fill="#f7ff18" stroke="none" /><line stroke="#e1ed5e" stroke-width="0.3" x1="174.80103733775053" x2="179.2010983576182" y1="140.37084112569926" y2="142.7455964860345" /><path d="M 175.68104954172406 140.8457921977663 a86.0,86.0 0 0,1 -30.038265399797805,32.042727171017184" fill="none" id="id17" stroke="none" /><text fill="#e1ed5e" style="font-size:6.75px; font-family:Arial;" text-anchor="middle"><textPath startOffset="22.206326154141568" xlink:href="#id17">May</textPath></text><path d="M 117.55443506779139 111.5257021239791 l 9.538424244501858 6.262635974881337 a32.410615514597744,32.410615514597744 0 0,0 -0.3102110985791072,0.46372350238119947 l -9.42921004051203 -6.425896391468343" fill="#ff6809" stroke="none" /><path d="M 116.0416608686014 113.55231037782055 l 13.660164196221215 11.54037518406421 a38.882403229339424,38.882403229339424 0 0,0 -0.43632997937538937,0.5075503411808426 l -13.459491707275047 -11.773802624406581" fill="#ffc312" stroke="none" /><path d="M 115.80600337817218 113.82643327865902 l 14.207211570434467 12.427876810761544 a39.87583064743249,39.87583064743249 0 0,0 -0.4563715718586653,0.5127382989450266 l -13.991181148927463 -12.670589279447439" fill="#ffd013" stroke="none" /><path d="M 114.29624159901734 115.38237550388516 l 9.07179000031821 9.761004618645849 a34.325711424726975,34.325711424726975 0 0,0 -0.43626418305381165,0.39851698749571457 l -8.902426267797534 -9.915714372728146" fill="#ff830c" stroke="none" /><path d="M 112.34349029814194 116.9893568818739 l 7.182546335065261 9.88592691853031 a33.21967769189849,33.21967769189849 0 0,0 -0.4655068248758936,0.3321267595761747 l -7.0113121823404825 -10.008097939950703" fill="#ff740a" stroke="none" /><path d="M 112.04921762599082 117.19931262002967 l 11.509086004814336 16.428317116675245 a41.0586306599493,41.0586306599493 0 0,0 -0.5823347842322715,0.40053517460701704 l -11.22459433595918 -16.62399308064736" fill="#ffe015" stroke="none" /><path d="M 111.7513745106137 117.40417183066458 l 10.256515243299303 15.190236130844685 a39.328649122258035,39.328649122258035 0 0,0 -0.5643198592816498,0.37400043131048155 l -9.993520685277689 -15.364534583246485" fill="#ffc912" stroke="none" /><line stroke="#e1ed5e" stroke-width="0.3" x1="143.8653032363475" x2="146.44561519142675" y1="172.8068346515853" y2="177.08958963109032" /><path d="M 144.38136562736335 173.6633856474863 a86.0,86.0 0 0,1 -40.68145358897372,12.25698825130547" fill="none" id="id18" stroke="none" /><text fill="#e1ed5e" style="font-size:6.75px; font-family:Arial;" text-anchor="middle"><textPath startOffset="21.466115282336833" xlink:href="#id18">June</textPath></text><line stroke="#e1ed5e" stroke-width="0.3" x1="102.19456741930631" x2="102.32365962044197" y1="184.97166512339345" y2="189.96999836594603" /><path d="M 102.22038585953345 185.97133177190398 a86.0,86.0 0 0,1 -42.740103519485714,-10.115201625700543" fill="none" id="id19" stroke="none" /><text fill="#e1ed5e" style="font-size:6.75px; font-family:Arial;" text-anchor="middle"><textPath startOffset="22.20632615414155" xlink:href="#id19">July</textPath></text><line stroke="#e1ed5e" stroke-width="0.3" x1="58.666819895761336" x2="56.23545636021788" y1="174.27360380694188" y2="178.64263932499728" /><path d="M 58.180547188652646 175.14741091055294 a86.0,86.0 0 0,1 -31.652253787137756,-30.449443065178592" fill="none" id="id20" stroke="none" /><text fill="#e1ed5e" style="font-size:6.75px; font-family:Arial;" text-anchor="middle"><textPath startOffset="22.20632615414155" xlink:href="#id20">August</textPath></text><path d="M 85.70375840098266 115.38237550388516 l -3.0398559694062244 3.2708041253547004 a25.46529774384329,25.46529774384329 0 0,0 -0.31851529447028615,-0.30117609164393655 l 3.0957070982673276 -3.217993396964833" fill="#ff0000" stroke="none" /><path d="M 84.43433777217949 114.09645910891817 l -5.66477686691622 5.1300930404945 a28.642483336984075,28.642483336984075 0 0,0 -0.3278079711494788,-0.3682957306548852 l 5.752243687714038 -5.0318231400987505" fill="#ff3004" stroke="none" /><path d="M 84.19399662182784 113.82643327865904 l -3.896238937685603 3.408267505751544 a26.176578527396188,26.176578527396188 0 0,0 -0.2937479430376012,-0.3416952209502781 l 3.9543293902939824 -3.3406951856397358" fill="#ff0b01" stroke="none" /><path d="M 83.72743513129214 113.27417163493432 l -14.10157241731901 11.503207644291425 a39.19830021591514,39.19830021591514 0 0,0 -0.4220015979387852,-0.526511879140617 l 14.297491927312658 -11.25876793157255" fill="#ffc712" stroke="none" /><path d="M 83.50135304334701 112.99209946851258 l -13.554518468123138 10.673702676851 a38.25262008323685,38.25262008323685 0 0,0 -0.40291518028377116,-0.520822184029655 l 13.736240465624979 -10.438802498708093" fill="#ffba11" stroke="none" /><path d="M 83.28015986056508 112.70617746262583 l -8.43779286773835 6.412267861191733 a31.59780767906875,31.59780767906875 0 0,0 -0.3253652337016258,-0.43587990096990964 l 8.546919368135061 -6.266075080712516" fill="#ff5c08" stroke="none" /><path d="M 83.06392112726016 112.41649034213515 l -13.99313242632085 10.258903193187788 a38.3508746127609,38.3508746127609 0 0,0 -0.3857371284897334,-0.5357551339495782 l 14.16764934718619 -10.016514453787073" fill="#ffbb11" stroke="none" /><line stroke="#e1ed5e" stroke-width="0.3" x1="26.63291911575756" x2="22.317208475507996" y1="142.92168965132927" y2="145.44649492493687" /><path d="M 25.769776987707644 143.4266507060508 a86.0,86.0 0 0,1 -11.730757126820373,-40.83630448921669" fill="none" id="id21" stroke="none" /><text fill="#e1ed5e" style="font-size:6.75px; font-family:Arial;" text-anchor="middle"><textPath startOffset="21.46611528233685" xlink:href="#id21">September</textPath></text><path d="M 80.58989483394504 108.01547362559985 l -13.194012457269828 5.448515500680143 a35.27474293582001,35.27474293582001 0 0,0 -0.22692978825580765,-0.5632211240744278 l 13.285844859783024 -5.220595008762911" fill="#ff910d" stroke="none" /><path d="M 80.45479744820244 107.68017299344265 l -26.066928457057095 10.242847032530726 a49.0071539881716,49.0071539881716 0 0,0 -0.3017573976910649,-0.787793344904055 l 26.23938013434167 -9.792630120793513" fill="#baff1f" stroke="none" /><path d="M 79.67330655649465 105.27499134158121 l -22.07544931395523 5.728811934723962 a43.80668210407735,43.80668210407735 0 0,0 -0.1831300498576729,-0.7315135172508769 l 22.170790678107963 -5.347970578075693" fill="#fbff18" stroke="none" /><path d="M 79.29508885075956 103.50808413554451 l -17.1806511030998 2.910960068298615 a38.425511781456336,38.425511781456336 0 0,0 -0.10488013919441097,-0.6530887268795185 l 17.228212996655504 -2.6147921117258828" fill="#ffbc11" stroke="none" /><line stroke="#e1ed5e" stroke-width="0.3" x1="15.007084014347285" x2="10.007500721073583" y1="101.09737516637583" y2="101.16192664675087" /><path d="M 14.007167355692545 101.11028546245083 a86.0,86.0 0 0,1 10.666146001902534,-42.60595125391555" fill="none" id="id22" stroke="none" /><text fill="#e1ed5e" style="font-size:6.75px; font-family:Arial;" text-anchor="middle"><textPath startOffset="22.20632615414155" xlink:href="#id22">October</textPath></text><path d="M 79.00175016825051 100.2711162175752 l -23.65903566376386 0.3054706136002813 a44.66100760396783,44.66100760396783 0 0,0 -0.0033085357420485377,-0.7687871877479977 l 23.660788496795412 0.10182605235139182" fill="#f0ff19" stroke="none" /><path d="M 79.00486145842228 99.54816195383935 l -10.14231342027182 -0.21827353367015073 a31.144661889413896,31.144661889413896 0 0,0 0.016148218796550727,-0.5358807661428723 l 10.137053507019624 0.3928244472380174" fill="#ff5607" stroke="none" /><path d="M 79.01574976396665 99.18683210126434 l -9.622510261879103 -0.37288520496091837 a30.629732452983696,30.629732452983696 0 0,0 0.024950676335421654,-0.526669342661009 l 9.614665977310182 0.5384656542449364" fill="#ff4e07" stroke="none" /><path d="M 79.3925641242962 95.95851677861259 l -11.153706152530464 -2.1874393565326513 a32.366180179616364,32.366180179616364 0 0,0 0.11192641872313752,-0.5457929675525587 l 11.114400437892332 2.379107980248613" fill="#ff6709" stroke="none" /><path d="M 79.91906864156998 93.8553929516997 l -14.07325357829062 -4.306304901210661 a35.71736145445442,35.71736145445442 0 0,0 0.18495558059242137,-0.5863597341481314 l 13.997042513929996 4.547914801785207" fill="#ff970d" stroke="none" /><path d="M 80.14247586403 93.16781622104843 l -22.44672605951493 -7.723025117546763 a44.738168163469666,44.738168163469666 0 0,0 0.2568118258247109,-0.7260416142588516 l 22.31046115288041 8.108264358232226" fill="#efff19" stroke="none" /><path d="M 81.10775173730289 90.83032412892265 l -15.638503803637658 -7.59041533829046 a38.383244985449195,38.383244985449195 0 0,0 0.2936135227270735,-0.5919069452777638 l 15.505530267957171 7.858481872067185" fill="#ffbc11" stroke="none" /><line stroke="#e1ed5e" stroke-width="0.3" x1="26.266209847984243" x2="21.928928074336255" y1="57.711370442889674" y2="55.22380399835377" /><path d="M 25.398753493254645 57.213857153982495 a86.0,86.0 0 0,1 29.58750427330803,-30.492523968695096" fill="none" id="id23" stroke="none" /><text fill="#e1ed5e" style="font-size:6.75px; font-family:Arial;" text-anchor="middle"><textPath startOffset="21.46611528233685" xlink:href="#id23">November</textPath></text><line stroke="#e1ed5e" stroke-width="0.3" x1="56.762969772571076" x2="54.21961505331055" y1="26.818313649435495" y2="22.513508569990535" /><path d="M 56.25429882871897 25.957352633546506 a86.0,86.0 0 0,1 42.265352541879196,-11.944610805530505" fill="none" id="id24" stroke="none" /><text fill="#e1ed5e" style="font-size:6.75px; font-family:Arial;" text-anchor="middle"><textPath startOffset="22.20632615414155" xlink:href="#id24">December</textPath></text><path d="M 94.98787191387505 79.60689891045804 l -3.5182419563226137 -14.314850426782629 a35.74086053133899,35.74086053133899 0 0,0 0.5987041972619389,-0.14169394013509395 l 3.2713140720981406 14.373290279058594" fill="#ff970e" stroke="none" /><path d="M 96.40284397218896 79.31037775812273 l -2.3496676753355303 -13.514492065617967 a34.71723127953187,34.71723127953187 0 0,0 0.589648687672883,-0.09729708577093932 l 2.1166897815237617 13.552935414328532" fill="#ff890c" stroke="none" /><path d="M 96.75951476605007 79.25152402106235 l -1.5641149020237457 -10.014858309778568 a31.136263729386364,31.136263729386364 0 0,0 0.5302520830087109,-0.07814537338844861 l 1.391493838586386 10.040298167327984" fill="#ff5507" stroke="none" /></svg>