<?xml version="1.0" encoding="utf-8" ?>
<svg baseProfile="full" height="200mm" version="1.1" viewBox="0,0,200,200" width="200mm" xmlns="http://www.w3.org/2000/svg" xmlns:ev="http://www.w3.org/2001/xml-events" xmlns:xlink="http://www.w3.org/1999/xlink"><defs /><rect fill="#1a1a1a" height="200" width="200" x="0" y="0" /><text alignment-baseline="middle" fill="#e1ed5e" style="dominant-baseline: central; font-size:9.0px; font-family:Arial;" text-anchor="middle" x="100.0" y="100.0">2019</text><line stroke="#e1ed5e" stroke-width="0.3" x1="100.0" x2="100.0" y1="15.0" y2="10.0" /><path d="M 100.0 14.0 a86.0,86.0 0 0,1 42.46469731375804,11.215312516191453" fill="none" id="id37" stroke="none" /><text fill="#e1ed5e" style="font-size:6.75px; font-family:Arial;" text-anchor="middle"><textPath startOffset="22.20632615414155" xlink:href="#id37">January</textPath></text><path d="M 106.40334571778207 80.00007090966166 l 14.298917227545395 -44.66061075312038 a67.89380755197776,67.89380755197776 0 0,0 1.1099576379029261,0.3659355820318336 l -15.065557687690738 44.40786144682931" fill="#39ff8b" stroke="none" /><path d="M 107.4271985657038 80.35727306442388 l 10.836292170405136 -28.6587636259351 a51.63902675624023,51.63902675624023 0 0,0 0.8287248266612187,0.3215323577318895 l -11.328000162066022 28.467988564312666" fill="#84ff25" stroke="none" /><path d="M 108.09893153111575 80.62456947434976 l 11.767612196372925 -28.152176825750654 a51.51264912839521,51.51264912839521 0 0,0 0.8151661897435376,0.3490116206607239 l -12.250462143906779 27.94544567712714" fill="#85ff25" stroke="none" /><path d="M 109.08828744355905 81.06846463323043 l 14.791507565050955 -30.81173987229667 a55.17823883708808,55.17823883708808 0 0,0 0.8527106637331419,0.41842141941209937 l -15.319689495794528 30.55256329274974" fill="#5fff29" stroke="none" /><path d="M 110.05341064243156 81.56283822128135 l 17.183314855386232 -31.512843466900325 a56.893253026003364,56.893253026003364 0 0,0 0.8557718154878099,0.4762360887944806 l -17.723210759946078 31.212391980545664" fill="#4eff2c" stroke="none" /><line stroke="#e1ed5e" stroke-width="0.3" x1="143.23703022742887" x2="145.7803849466894" y1="26.81831364943548" y2="22.513508569990506" /><path d="M 143.74570117128098 25.957352633546492 a86.0,86.0 0 0,1 28.547481713284135,27.462654790039103" fill="none" id="id38" stroke="none" /><text fill="#e1ed5e" style="font-size:6.75px; font-family:Arial;" text-anchor="middle"><textPath startOffset="19.985693538727396" xlink:href="#id38">February</textPath></text><path d="M 116.60985879189232 87.15038557335679 l 24.636630529130507 -19.05923506258344 a52.14832266751607,52.14832266751607 0 0,0 0.543147278302,0.7147181512371102 l -24.96105374765662 18.632332135465294" fill="#7fff26" stroke="none" /><line stroke="#e1ed5e" stroke-width="0.3" x1="172.23445277983987" x2="176.4835382374775" y1="55.19839476539836" y2="52.563006222186495" /><path d="M 173.08426987136738 54.67131705675599 a86.0,86.0 0 0,1 12.851231095245387,41.99856678651699" fill="none" id="id39" stroke="none" /><text fill="#e1ed5e" style="font-size:6.75px; font-family:Arial;" text-anchor="middle"><textPath startOffset="22.20632615414155" xlink:href="#id39">March</textPath></text><path d="M 119.34039704204932 91.81776055985345 l 40.23542116636398 -17.022186733941346 a64.68802991254995,64.68802991254995 0 0,0 0.42502596409470694,1.0292340848123966 l -40.52246881734489 16.327078078675648" fill="#35ff67" stroke="none" /><path d="M 119.7369772167798 92.82701384747503 l 38.239693241767235 -13.897406228285211 a61.68675508194822,61.68675508194822 0 0,0 0.3541022990461277,1.0010948833318118 l -38.47324862162317 13.237113718526786" fill="#31ff44" stroke="none" /><path d="M 119.97218684219823 93.5106431181261 l 22.921242105139335 -7.447563022082776 a45.10082020617363,45.10082020617363 0 0,0 0.23354604166559348,0.7404047742909691 l -23.046043630573134 7.051908081365388" fill="#cdff1d" stroke="none" /><path d="M 120.08093135843002 93.85539295169968 l 13.336005623925095 -4.080712826028475 a34.946370967741935,34.946370967741935 0 0,0 0.17106099299193736,0.5767326293939803 l -13.404272514028735 3.8505508098879653" fill="#ffb610" stroke="none" /><path d="M 120.94382443527127 98.46500227214037 l 38.23542772235098 -2.8023198369973255 a59.33798285747379,59.33798285747379 0 0,0 0.06589174720125773,1.0193161648258309 l -38.27800006055665 2.1437446079184594" fill="#36ff2f" stroke="none" /><path d="M 120.96714384426684 98.82574320788733 l 46.7812776432086 -2.61996738441163 a67.85458533619041,67.85458533619041 0 0,0 0.055273672376881834,1.1667398633142962 l -46.81944492381898 1.8143164144743338" fill="#39ff8a" stroke="none" /><line stroke="#e1ed5e" stroke-width="0.3" x1="184.98032266829074" x2="189.97916517819016" y1="98.17113171792111" y2="98.06355123074" /><path d="M 185.9800911702706 98.14961562048488 a86.0,86.0 0 0,1 -9.607161424134198,41.387399972396054" fill="none" id="id40" stroke="none" /><text fill="#e1ed5e" style="font-size:6.75px; font-family:Arial;" text-anchor="middle"><textPath startOffset="21.466115282336823" xlink:href="#id40">April</textPath></text><path d="M 120.99513854157772 99.54816195383933 l 18.898178100921836 -0.40670919375963144 a39.90255400474894,39.90255400474894 0 0,0 0.008867854072625435,0.6868250706429058 l -18.902378962112177 0.08134786505626292" fill="#fff417" stroke="none" /><path d="M 120.9764740272857 100.99374915477107 l 27.595901866723693 1.3073409820702078 a48.62685179822783,48.62685179822783 0 0,0 -0.04680600569969011,0.8357526742641003 l -27.569309510136474 -1.7821653726697313" fill="#a5ff21" stroke="none" /><path d="M 120.95626037817324 101.35467743843564 l 29.278840086506744 1.8926747126155523 a50.339950483581404,50.339950483581404 0 0,0 -0.0633407013544314,0.8642335455596903 l -29.241922826487976 -2.396381394672013" fill="#92ff23" stroke="none" /><path d="M 120.92983693683757 101.71520430193887 l 31.758166926460138 2.6025880993885893 a52.864629785139286,52.864629785139286 0 0,0 -0.08212999473348177,0.9062976481018916 l -31.70866233544958 -3.1488671360390517" fill="#77ff27" stroke="none" /><path d="M 120.89721153311464 102.0752229133903 l 16.525356217942402 1.6410705237427237 a37.6066405571321,37.6066405571321 0 0,0 -0.0695144397478604,0.6436173779899931 l -16.49465947669349 -1.9252842236175083" fill="#ffd714" stroke="none" /><path d="M 120.81339534386255 102.79330883721812 l 24.036189959520154 3.225831284023504 a45.251688915271906,45.251688915271906 0 0,0 -0.11025455268816328,0.7711200847078081 l -23.977101355815392 -3.6390968407117215" fill="#cbff1d" stroke="none" /><path d="M 120.70491114924044 103.5080841355445 l 5.885916885803072 0.9972654072933187 a26.96980367174379,26.96980367174379 0 0,0 -0.08149190439932165,0.4570498772942864 l -5.867878539064561 -1.0984340353208235" fill="#ff4b07" stroke="none" /><line stroke="#e1ed5e" stroke-width="0.3" x1="174.80103733775053" x2="179.2010983576182" y1="140.37084112569926" y2="142.7455964860345" /><path d="M 175.68104954172406 140.8457921977663 a86.0,86.0 0 0,1 -30.038265399797805,32.042727171017184" fill="none" id="id41" stroke="none" /><text fill="#e1ed5e" style="font-size:6.75px; font-family:Arial;" text-anchor="middle"><textPath startOffset="22.206326154141568" xlink:href="#id41">May</textPath></text><path d="M 118.48025628344425 109.97397251340804 l 35.324265516877695 19.064846716292497 a61.14065413795101,61.14065413795101 0 0,0 -0.5078272582488016,0.9218539821199297 l -34.990861849177385 -19.670071216810232" fill="#31ff3d" stroke="none" /><path d="M 118.30583269289576 110.29060199501025 l 23.15852956022074 13.018539745880998 a47.5668942201888,47.5668942201888 0 0,0 -0.40737195117770814,0.7102873343622869 l -22.931005612890655 -13.4152469261016" fill="#b1ff20" stroke="none" /><path d="M 117.94076556474637 110.91462005526583 l 21.854222982945682 13.295449383198182 a46.580774743730814,46.580774743730814 0 0,0 -0.4226326047782002,0.6814183280534246 l -21.62212573849952 -13.66966404261688" fill="#bcff1f" stroke="none" /><path d="M 117.75023020441432 111.22182372390056 l 37.51256264632534 23.71571301335294 a65.38048445010713,65.38048445010713 0 0,0 -0.6095800421611125,0.9460817624313752 l -37.09877774078718 -24.357916375705766" fill="#36ff6f" stroke="none" /><path d="M 117.35343817320211 111.8261652097733 l 24.634203960296713 16.787921963245385 a50.8107082874848,50.8107082874848 0 0,0 -0.49876539584911644,0.7185087524016681 l -24.34157765728546 -17.209471977834074" fill="#8dff24" stroke="none" /><path d="M 117.14729908036423 112.12312394758627 l 33.12441689754742 23.41893086826351 a61.566899287658536,61.566899287658536 0 0,0 -0.6192463452537899,0.860079012741605 l -32.71639075991803 -23.985643486456244" fill="#31ff42" stroke="none" /><path d="M 116.71984013943494 112.70617746262583 l 37.27431611208813 28.326471507413064 a67.81627526495627,67.81627526495627 0 0,0 -0.7143094176319646,0.9233412121678145 l -36.781199877238095 -28.96389071369413" fill="#39ff8a" stroke="none" /><path d="M 116.498646956653 112.99209946851258 l 9.904025401084986 7.799068825924787 a33.60615697573406,33.60615697573406 0 0,0 -0.36179762556601386,0.4513981668216525 l -9.76830986346412 -7.96839482632469" fill="#ffa40f" stroke="none" /><path d="M 116.27256486870786 113.27417163493432 l 48.81769460612357 39.822514904802965 a84.0,84.0 0 0,0 -0.9236160004258265,1.1125549715449181 l -48.12498260580419 -40.656931133461654" fill="#4dd2ff" stroke="none" /><path d="M 115.80600337817218 113.82643327865902 l 12.345379310807846 10.799223513791334 a37.40218335553368,37.40218335553368 0 0,0 -0.42806113206346375,0.480931219718206 l -12.157659329096045 -11.010128903250406" fill="#ffd513" stroke="none" /><path d="M 115.32070863581623 114.36230785411682 l 14.187515664585987 13.300002793835054 a40.446739445184456,40.446739445184456 0 0,0 -0.4805331671264542,0.5038371045858022 l -13.95647594608057 -13.542247015003364" fill="#fffa17" stroke="none" /><path d="M 114.81725581225074 114.88116024355365 l 31.03691421481064 31.170771413297754 a64.98757818381884,64.98757818381884 0 0,0 -0.7995020913700663,0.7824810692899952 l -30.49576217106478 -31.70040258551032" fill="#36ff6a" stroke="none" /><path d="M 114.55890576462653 115.13401014063108 l 22.723648801216253 23.62127600449977 a53.77695676724387,53.77695676724387 0 0,0 -0.6726323561080819,0.6360158762950191 l -22.313680610717363 -24.00892651754071" fill="#6eff28" stroke="none" /><path d="M 114.29624159901734 115.38237550388516 l 7.11851117767599 7.659328586832386 a31.456505907221867,31.456505907221867 0 0,0 -0.3997978856588463,0.3652058894329797 l -6.985613742550281 -7.780727242851948" fill="#ff880c" stroke="none" /><line stroke="#e1ed5e" stroke-width="0.3" x1="143.8653032363475" x2="146.44561519142675" y1="172.8068346515853" y2="177.08958963109032" /><path d="M 144.38136562736335 173.6633856474863 a86.0,86.0 0 0,1 -40.68145358897372,12.25698825130547" fill="none" id="id42" stroke="none" /><text fill="#e1ed5e" style="font-size:6.75px; font-family:Arial;" text-anchor="middle"><textPath startOffset="21.466115282336833" xlink:href="#id42">June</textPath></text><path d="M 108.59647513512805 119.15986991738527 l 3.988832668936371 8.89033166009375 a30.744166618405053,30.744166618405053 0 0,0 -0.4847027591538644,0.21247944551199696 l -3.835209235124753 -8.957675658900202" fill="#ff7f0b" stroke="none" /><line stroke="#e1ed5e" stroke-width="0.3" x1="102.19456741930631" x2="102.32365962044197" y1="184.97166512339345" y2="189.96999836594603" /><path d="M 102.22038585953345 185.97133177190398 a86.0,86.0 0 0,1 -42.740103519485714,-10.115201625700543" fill="none" id="id43" stroke="none" /><text fill="#e1ed5e" style="font-size:6.75px; font-family:Arial;" text-anchor="middle"><textPath startOffset="22.20632615414155" xlink:href="#id43">July</textPath></text><path d="M 99.09653310690486 120.98055641714683 l -1.1392743945209984 26.456543002889653 a47.48106141773325,47.48106141773325 0 0,0 -0.8162490331520784,-0.04219075148526965 l 1.5945114960865658 -26.43301244464218" fill="#b2ff20" stroke="none" /><path d="M 98.37488393609728 120.93702456842531 l -3.1005698276423215 39.94588946562253 a61.06604071349974,61.06604071349974 0 0,0 -1.0472991217139662,-0.09036537502636127 l 3.7877132670978293 -39.8865998383175" fill="#31ff3c" stroke="none" /><path d="M 96.93821686468263 120.77559828337769 l -3.943145170252637 26.756042609699186 a48.04504039497307,48.04504039497307 0 0,0 -0.8171412076459269,-0.12762065127658456 l 4.403122241507081 -26.684203651075496" fill="#abff21" stroke="none" /><path d="M 96.58105272829116 120.7198165907248 l -3.31811832490651 20.10876379617961 a41.380684253199746,41.380684253199746 0 0,0 -0.701798726569878,-0.12201670432054972 l 3.6637660229484377 -20.048668513338054" fill="#f8ff18" stroke="none" /><path d="M 95.16358092515715 120.4354850818985 l -7.228579676493131 30.543162173573617 a52.38689407540395,52.38689407540395 0 0,0 -0.8757260517940915,-0.2152321572220025 l 7.753259013030433 -30.414208758037585" fill="#7cff26" stroke="none" /><path d="M 94.81253420990036 120.34920634021253 l -6.058672835024061 23.7667463567749 a45.52683731974287,45.52683731974287 0 0,0 -0.7577173691341283,-0.20012004397432417 l 6.4668806469696785 -23.658934963496996" fill="#c8ff1d" stroke="none" /><path d="M 94.46302465271185 120.25689768951611 l -7.466114380663115 27.314608727920522 a49.3166155093531,49.3166155093531 0 0,0 -0.816938734774883,-0.2308750466278426 l 7.935184283542613 -27.182044887954156" fill="#9dff22" stroke="none" /><path d="M 92.40401165467489 119.57807347666478 l -9.269876137270733 23.89239002015611 a46.62765897376498,46.62765897376498 0 0,0 -0.7457737106093039,-0.296758750466737 l 9.679770923921895 -23.729284425283307" fill="#bbff1f" stroke="none" /><path d="M 92.06813273071674 119.44442032107085 l -10.056990539654434 24.654012047751337 a47.62636604505705,47.62636604505705 0 0,0 -0.7564167788784522,-0.31618227491841133 l 10.479878778030347 -24.477244729812952" fill="#b0ff20" stroke="none" /><path d="M 91.07499286063937 119.00905698771935 l -12.207119461054651 25.99951191834105 a49.722611049979726,49.722611049979726 0 0,0 -0.7716175740542656,-0.3704233266688063 l 12.652849703109158 -25.785534315172683" fill="#99ff23" stroke="none" /><path d="M 90.7491055286396 118.85261126421891 l -11.579838094419719 23.59881920311051 a47.2868202351306,47.2868202351306 0 0,0 -0.7276452941471534,-0.36485645615390067 l 11.984337296249633 -23.395994906047306" fill="#b4ff20" stroke="none" /><path d="M 90.10565033884886 118.52300852407294 l -11.433633871299858 21.404670838626554 a45.267012943765565,45.267012943765565 0 0,0 -0.6841293944380079,-0.37304189318239583 l 11.800386077606506 -21.204688293684395" fill="#cbff1d" stroke="none" /><line stroke="#e1ed5e" stroke-width="0.3" x1="58.666819895761336" x2="56.23545636021788" y1="174.27360380694188" y2="178.64263932499728" /><path d="M 58.180547188652646 175.14741091055294 a86.0,86.0 0 0,1 -31.652253787137756,-30.449443065178592" fill="none" id="id44" stroke="none" /><text fill="#e1ed5e" style="font-size:6.75px; font-family:Arial;" text-anchor="middle"><textPath startOffset="22.20632615414155" xlink:href="#id44">August</textPath></text><path d="M 89.7882731507175 118.34994917583269 l -10.367184082671011 18.62929784758994 a42.31969146348526,42.31969146348526 0 0,0 -0.6334879616695549,-0.3597109976561909 l 10.686320811261774 -18.448083684139117" fill="#edff1a" stroke="none" /><path d="M 89.4739219176387 118.17145234162733 l -9.943316982065388 17.165416144885977 a40.83736535008977,40.83736535008977 0 0,0 -0.6052333409285818,-0.3575825259207748 l 10.237318194022352 -16.991715046671455" fill="#ffff18" stroke="none" /><path d="M 89.1626897886671 117.98757091392108 l -8.70188874856992 14.443237103822085 a37.86208663925407,37.86208663925407 0 0,0 -0.5553481056597754,-0.3411401648614306 l 8.949216054162004 -14.291308472132275" fill="#ffdb14" stroke="none" /><path d="M 88.54995079064634 117.60387380957326 l -12.426166401789168 19.104604816471646 a43.79025091214455,43.79025091214455 0 0,0 -0.6283385975406962,-0.4164285601934745 l 12.753179698069825 -18.887878235186854" fill="#dcff1b" stroke="none" /><path d="M 88.24862548938628 117.40417183066458 l -10.752308610955428 15.924522401390949 a40.21464426362425,40.21464426362425 0 0,0 -0.5703645205361934,-0.3923019180861585 l 11.024830016114512 -15.73707969393969" fill="#fff817" stroke="none" /><path d="M 87.95078237400918 117.19931262002967 l -11.306059257933859 16.138512367668753 a40.704785139283025,40.704785139283025 0 0,0 -0.5703955186797016,-0.40696205763764864 l 11.582182104462447 -15.941506048186886" fill="#fffd18" stroke="none" /><path d="M 86.79598089348748 116.32954008644616 l -13.467629200129974 16.655549277753288 a42.41925204146638,42.41925204146638 0 0,0 -0.5638323985507123,-0.463995678492968 l 13.752331727225375 -16.42125848040314" fill="#ecff1a" stroke="none" /><path d="M 86.51685102203217 116.09983520530335 l -13.083464620269753 15.622583763255827 a41.37749174726357,41.37749174726357 0 0,0 -0.5421131653485779,-0.4620006004040199 l 13.350443262195387 -15.395058772628856" fill="#f8ff18" stroke="none" /><path d="M 86.24171649860922 115.8653595955263 l -17.025039196747286 19.632417732707825 a46.98622299762553,46.98622299762553 0 0,0 -0.6064750024544169,-0.535143676026605 l 17.36045655210829 -19.33645091490893" fill="#b7ff1f" stroke="none" /><path d="M 85.70375840098266 115.38237550388516 l -17.096405217302888 18.39527703821197 a46.113209445763594,46.113209445763594 0 0,0 -0.5767756039349045,-0.5453773340384787 l 17.41051665562861 -18.09826506742756" fill="#c1ff1e" stroke="none" /><path d="M 85.44109423537348 115.13401014063109 l -17.82709216841808 18.53129610264535 a46.714084670180114,46.714084670180114 0 0,0 -0.5746945713934387,-0.5624595952819718 l 18.14343669218731 -18.221686404440806" fill="#baff1f" stroke="none" /><path d="M 85.18274418774928 114.88116024355367 l -14.688590595748188 14.751940114752026 a41.81764710140731,41.81764710140731 0 0,0 -0.5057135009296044,-0.5122851064856636 l 14.940344721733325 -14.496914514285699" fill="#f3ff19" stroke="none" /><path d="M 84.19399662182784 113.82643327865904 l -14.308440167907069 12.516427370657052 a40.01032388370881,40.01032388370881 0 0,0 -0.4489872627473881,-0.5222736212613792 l 14.521769940225235 -12.268276650234142" fill="#fff517" stroke="none" /><path d="M 83.95833913139862 113.55231037782056 l -13.750821208479831 11.616964009754929 a39.001081542827365,39.001081542827365 0 0,0 -0.42883360651034313,-0.5165577043583665 l 13.948750814883711 -11.3785450482828" fill="#ffe915" stroke="none" /><path d="M 83.72743513129214 113.27417163493432 l -16.03071932753497 13.076888708206171 a41.68789453871547,41.68789453871547 0 0,0 -0.44880410663569303,-0.5599521298141196 l 16.253441346225525 -12.799008744813792" fill="#f5ff19" stroke="none" /><path d="M 83.28015986056508 112.70617746262583 l -15.844462049317782 12.040937288846354 a40.900531360398446,40.900531360398446 0 0,0 -0.4211561472795481,-0.5642074836349081 l 16.049379463292414 -11.766416925702138" fill="#feff18" stroke="none" /><path d="M 82.85270091963577 112.12312394758628 l -22.691695066672303 16.043006574085904 a48.79012567324955,48.79012567324955 0 0,0 -0.47893105932043545,-0.6899359113173914 l 22.96448703315487 -15.6500294005815" fill="#a3ff22" stroke="none" /><path d="M 82.6465618267979 111.8261652097733 l -16.0968415147272 10.969809279792702 a40.47934861296114,40.47934861296114 0 0,0 -0.38743920791436415,-0.5791690473899347 l 16.28328382805229 -10.691103318196946" fill="#fffb17" stroke="none" /><path d="M 82.24976979558568 111.22182372390057 l -21.520200949898843 13.60522645518279 a46.46018923379857,46.46018923379857 0 0,0 -0.4215385188931794,-0.679654313242237 l 21.75120410845998 -13.232775810575289" fill="#bdff1f" stroke="none" /><path d="M 82.05923443525364 110.91462005526583 l -25.35051370315197 15.422487088255167 a50.67324810331847,50.67324810331847 0 0,0 -0.4469359352010895,-0.7490903351039894 l 25.612230514051294 -14.983834659265067" fill="#8eff24" stroke="none" /><line stroke="#e1ed5e" stroke-width="0.3" x1="26.63291911575756" x2="22.317208475507996" y1="142.92168965132927" y2="145.44649492493687" /><path d="M 25.769776987707644 143.4266507060508 a86.0,86.0 0 0,1 -11.730757126820373,-40.83630448921669" fill="none" id="id45" stroke="none" /><text fill="#e1ed5e" style="font-size:6.75px; font-family:Arial;" text-anchor="middle"><textPath startOffset="21.46611528233685" xlink:href="#id45">September</textPath></text><path d="M 81.87401531095188 110.60418214915194 l -9.217751323662476 5.392629185037471 a31.679297214339492,31.679297214339492 0 0,0 -0.2713075412997388,-0.4730475668368136 l 9.309210861114593 -5.23316177234235" fill="#ff8b0c" stroke="none" /><path d="M 81.51974371655577 109.97397251340807 l -17.6409013873829 9.52096458246232 a41.046200845543524,41.046200845543524 0 0,0 -0.33022155617867327,-0.6246547370473744 l 17.80217545178646 -9.21589483032882" fill="#fcff18" stroke="none" /><path d="M 81.18737489456691 109.33194174019688 l -17.45865976494839 8.660311619209672 a40.488606880176064,40.488606880176064 0 0,0 -0.3043330828686988,-0.6270162911911054 l 17.605146104431807 -8.358506372053283" fill="#fffb17" stroke="none" /><path d="M 81.02952815118164 109.00673069616217 l -18.258612226212023 8.668756608570542 a41.21198311808652,41.21198311808652 0 0,0 -0.29873856766387213,-0.6434562977173487 l 18.40512541071572 -8.353180243574366" fill="#faff18" stroke="none" /><path d="M 80.87730276802145 108.67885076344099 l -24.052686282215692 10.916330064261334 a47.41397318584583,47.41397318584583 0 0,0 -0.33090192755703557,-0.7460964910834985 l 24.237029294504005 -10.50068523668514" fill="#b2ff20" stroke="none" /><path d="M 80.58989483394504 108.01547362559985 l -18.369131907080575 7.585599926777446 a40.87375991776221,40.87375991776221 0 0,0 -0.26294943382670677,-0.6526189304317653 l 18.49698395516467 -7.2682816285028755" fill="#feff18" stroke="none" /><path d="M 80.45479744820244 107.68017299344265 l -28.511509040375024 11.203430670716964 a51.63369071060404,51.63369071060404 0 0,0 -0.31793007498002823,-0.8300151019678869 l 28.700133394948562 -10.710992001915919" fill="#84ff25" stroke="none" /><path d="M 80.32549172779594 107.34259656027581 l -37.793839357981724 14.104795455629723 a61.34004893727921,61.34004893727921 0 0,0 -0.3606670415479166,-0.9924007980091997 l 38.03103066053487 -13.452146860614405" fill="#31ff3f" stroke="none" /><path d="M 80.20201598880116 107.00284435728193 l -24.92820956920588 8.817482205264398 a47.441702380262925,47.441702380262925 0 0,0 -0.2656942474086373,-0.7722318516898736 l 25.076294647557745 -8.387077650485226" fill="#b2ff20" stroke="none" /><path d="M 80.0844068197444 106.66101706037122 l -39.21317091394779 13.11533119224454 a62.3483335263798,62.3483335263798 0 0,0 -0.3316567614819048,-1.0207345548057225 l 39.43311992644595 -12.438397737461013" fill="#32ff4b" stroke="none" /><path d="M 79.97269907076064 106.31721596034903 l -22.84204893961048 7.205072547629682 a44.95145653558812,44.95145653558812 0 0,0 -0.22641241134855025,-0.7399288604215135 l 22.962688123465156 -6.810816714656121" fill="#ceff1d" stroke="none" /><path d="M 79.86692584326677 105.97154293290107 l -1.385584468102565 0.410969386692902 a22.44524743730816,22.44524743730816 0 0,0 -0.10667623624555513,-0.37135397297820694 l 1.3924533412342242 -0.3870579382100991" fill="#ff0b01" stroke="none" /><path d="M 79.76711848015287 105.62410040840567 l -31.68640968298366 8.807818573156176 a53.887782330456936,53.887782330456936 0 0,0 -0.2407293581950418,-0.8958434953631192 l 31.833327117520476 -8.261084144617518" fill="#6cff28" stroke="none" /><path d="M 79.67330655649465 105.27499134158121 l -37.26055250113805 9.669506374576406 a59.494780506167835,59.494780506167835 0 0,0 -0.24871278985430698,-0.9934839630798004 l 37.42147660528742 -9.026694572099213" fill="#34ff2f" stroke="none" /><path d="M 79.58551787078972 104.9243191809786 l -30.06415848818413 7.251984711946879 a51.926443504951635,51.926443504951635 0 0,0 -0.2021161002539879,-0.8707108700243822 l 30.18453515436867 -6.733405184573923" fill="#81ff25" stroke="none" /><path d="M 79.50377843672027 104.57218783832718 l -14.178368394677905 3.162834834768223 a35.52685976139457,35.52685976139457 0 0,0 -0.1280082854737098,-0.5980120935806165 l 14.230710718876056 -2.918308921771443" fill="#ffbd11" stroke="none" /><path d="M 79.4281124754447 104.21870165774334 l -29.777306804189664 6.106468034497121 a51.39698919905021,51.39698919905021 0 0,0 -0.17027104682985097,-0.8682083994476025 l 29.878007783995184 -5.592995907981564" fill="#87ff25" stroke="none" /><path d="M 79.35854240842038 103.8639653848113 l -26.983472814333318 5.051155154813931 a48.45217611629119,48.45217611629119 0 0,0 -0.14640299766604126,-0.8211057602838122 l 27.066422254338548 -4.585930643796905" fill="#a7ff21" stroke="none" /><path d="M 79.29508885075956 103.50808413554451 l -0.656778679516867 0.1112796306909782 a21.666139167197546,21.666139167197546 0 0,0 -0.05913643270608992,-0.36824262291096105 l 0.6585968665842477 -0.09995777808680346" fill="#ff0000" stroke="none" /><path d="M 79.23777060512086 103.15116336523772 l -27.851306667120223 4.2270998732475595 a49.170261915793134,49.170261915793134 0 0,0 -0.11980205298494934,-0.8378952795464875 l 27.91994277112177 -3.747059121720672" fill="#9fff22" stroke="none" /><path d="M 79.18660465613746 102.79330883721812 l -20.447379967933674 2.7441869151458884 a41.63070307523021,41.63070307523021 0 0,0 -0.08920565749418848,-0.7110568604579836 l 20.49158713467471 -2.3918123004004963" fill="#f5ff19" stroke="none" /><path d="M 79.1416061653843 102.43462659150553 l -30.07586931070156 3.5105057353438482 a51.280052267330746,51.280052267330746 0 0,0 -0.09478921942493075,-0.8776304475628233 l 30.13184083162754 -2.992278965896243" fill="#88ff25" stroke="none" /><path d="M 79.10278846688536 102.07522291339032 l -19.88481564050222 1.974685712508642 a40.9826243701859,40.9826243701859 0 0,0 -0.06367022217629933,-0.7025955961614296 l 19.915860458955596 -1.6321087277986464" fill="#fdff18" stroke="none" /><path d="M 79.07016306316243 101.71520430193888 l -30.484431135694376 2.4982051978663407 a51.586624051659236,51.586624051659236 0 0,0 -0.06490933973019072,-0.8856363699078798 l 30.522917034088902 -1.9730956914617002" fill="#85ff25" stroke="none" /><path d="M 79.04373962182676 101.35467743843564 l -26.495539346452333 1.7127535506862979 a47.550840476052585,47.550840476052585 0 0,0 -0.045770285923137394,-0.817259201896622 l 26.521095983263002 -1.2564226324542382" fill="#b1ff20" stroke="none" /><path d="M 79.0095281055655 100.63252640178507 l -48.58398620108282 1.4640287331651047 a69.6060397000058,69.6060397000058 0 0,0 -0.025780543501501312,-1.197920553814224 l 48.60198880726933 -0.627518363560752" fill="#3bff9d" stroke="none" /><line stroke="#e1ed5e" stroke-width="0.3" x1="15.007084014347285" x2="10.007500721073583" y1="101.09737516637583" y2="101.16192664675087" /><path d="M 14.007167355692545 101.11028546245083 a86.0,86.0 0 0,1 10.666146001902534,-42.60595125391555" fill="none" id="id46" stroke="none" /><text fill="#e1ed5e" style="font-size:6.75px; font-family:Arial;" text-anchor="middle"><textPath startOffset="22.20632615414155" xlink:href="#id46">October</textPath></text><path d="M 79.00019446554 99.90962569577889 l -4.55064703530235 -0.01958406514272176 a25.550689175884635,25.550689175884635 0 0,0 0.005678327834348376,-0.4397927485070979 l 4.549635700350286 0.09791307171029162" fill="#ff3805" stroke="none" /><path d="M 79.00486145842228 99.54816195383935 l -28.488936004068552 -0.6131126572840785 a49.4955326634621,49.4955326634621 0 0,0 0.02566297536763692,-0.8516292152576255 l 28.47416133424527 1.1034120199666984" fill="#9bff22" stroke="none" /><path d="M 79.01574976396665 99.18683210126434 l -11.289485915085619 -0.4374827518789288 a32.29795925754329,32.29795925754329 0 0,0 0.026309597348477598,-0.5553540174591165 l 11.280282709503643 0.6317478759610544" fill="#ff930d" stroke="none" /><path d="M 79.03285615573316 98.82574320788736 l -28.748025181928227 -1.610022045941897 a49.79307421671396,49.79307421671396 0 0,0 0.055292622038436275,-0.8553523898407918 l 28.716051968885377 2.1046335000357006" fill="#98ff23" stroke="none" /><path d="M 79.05617556472873 98.46500227214037 l -40.6636565710442 -2.980287608689976 a61.772724706086755,61.772724706086755 0 0,0 0.08685102775349128,-1.059802524178966 l 40.60633105947121 3.67980405007672" fill="#32ff45" stroke="none" /><path d="M 79.08570108090925 98.10471618934814 l -14.324544533021427 -1.2981108022519041 a35.38324260149418,35.38324260149418 0 0,0 0.0601900537337328,-0.6061056269894708 l 14.300077353605465 1.5444919599458053" fill="#ffbb11" stroke="none" /><path d="M 79.12142395522702 97.74499172005258 l -40.55202706509334 -4.379856011460661 a61.787866305669766,61.787866305669766 0 0,0 0.12330988883486013,-1.056443823457001 l 40.4706268232549 5.077243573242524" fill="#32ff45" stroke="none" /><path d="M 79.16333360222342 97.38593545837743 l -17.498419331726357 -2.1952646664434594 a38.63558522036254,38.63558522036254 0 0,0 0.08846445314938346,-0.6591629299073158 l 17.45803887951914 2.496145938415435" fill="#ffe415" stroke="none" /><path d="M 79.26566170972629 96.67025291283419 l -40.900544663967494 -6.5682573300265705 a62.424588811026815,62.424588811026815 0 0,0 0.17950974826968685,-1.0594766957519386 l 40.78142305417759 7.271319814094337" fill="#32ff4c" stroke="none" /><path d="M 79.32604984820605 96.31383870115002 l -30.207545246948634 -5.385999453660269 a51.68394987548503,51.68394987548503 0 0,0 0.1637009767355659,-0.8744971635278745 l 30.110358546303207 5.905174694650717" fill="#84ff25" stroke="none" /><path d="M 79.54389044137918 95.25157060432595 l -24.43253463150615 -5.671467750140947 a46.08215092372734,46.08215092372734 0 0,0 0.18601213770299402,-0.7711403995951599 l 24.33128969354234 6.091193381395504" fill="#c1ff1e" stroke="none" /><path d="M 79.62865764111835 94.90015583598534 l -19.43246969720342 -4.864802988030239 a41.03215381942434,41.03215381942434 0 0,0 0.1774223846697861,-0.6836808232783531 l 19.345850980663325 5.198580236857456" fill="#fdff18" stroke="none" /><line stroke="#e1ed5e" stroke-width="0.3" x1="26.266209847984243" x2="21.928928074336255" y1="57.711370442889674" y2="55.22380399835377" /><path d="M 25.398753493254645 57.213857153982495 a86.0,86.0 0 0,1 29.58750427330803,-30.492523968695096" fill="none" id="id47" stroke="none" /><text fill="#e1ed5e" style="font-size:6.75px; font-family:Arial;" text-anchor="middle"><textPath startOffset="21.46611528233685" xlink:href="#id47">November</textPath></text><path d="M 81.78341655067845 89.55222093294921 l -24.4202126163959 -14.00575398215042 a49.151517345224995,49.151517345224995 0 0,0 0.42724447507023045,-0.7302993012264277 l 24.175508466855344 14.42403269573074" fill="#9fff22" stroke="none" /><path d="M 82.34701348167596 88.62581576622439 l -12.057425825996328 -7.7688487773788015 a35.34351870620258,35.34351870620258 0 0,0 0.3339177633143275,-0.5085796623086589 l 11.92191142732408 7.975246503665128" fill="#ffbb11" stroke="none" /><path d="M 82.54541684631803 88.32363383020206 l -12.031691222916248 -8.048684470077365 a35.47559723750507,35.47559723750507 0 0,0 0.3439030315878882,-0.5046352634500044 l 11.891363725659618 8.254597756797786" fill="#ffbd11" stroke="none" /><path d="M 83.17141714833178 87.43820079747576 l -11.478037414172977 -8.567851643051952 a35.32317788266636,35.32317788266636 0 0,0 0.3679061366991787,-0.484121350423523 l 11.32885533724969 8.764157769356501" fill="#ffbb11" stroke="none" /><line stroke="#e1ed5e" stroke-width="0.3" x1="56.762969772571076" x2="54.21961505331055" y1="26.818313649435495" y2="22.513508569990535" /><path d="M 56.25429882871897 25.957352633546506 a86.0,86.0 0 0,1 42.265352541879196,-11.944610805530505" fill="none" id="id48" stroke="none" /><text fill="#e1ed5e" style="font-size:6.75px; font-family:Arial;" text-anchor="middle"><textPath startOffset="22.20632615414155" xlink:href="#id48">December</textPath></text></svg>