<?xml version="1.0" encoding="utf-8" ?>
<svg baseProfile="full" height="200mm" version="1.1" viewBox="0,0,200,200" width="200mm" xmlns="http://www.w3.org/2000/svg" xmlns:ev="http://www.w3.org/2001/xml-events" xmlns:xlink="http://www.w3.org/1999/xlink"><defs /><rect fill="#1a1a1a" height="200" width="200" x="0" y="0" /><text alignment-baseline="middle" fill="#e1ed5e" style="dominant-baseline: central; font-size:9.0px; font-family:Arial;" text-anchor="middle" x="100.0" y="100.0">2020</text><line stroke="#e1ed5e" stroke-width="0.3" x1="100.0" x2="100.0" y1="15.0" y2="10.0" /><path d="M 100.0 14.0 a86.0,86.0 0 0,1 42.35913384403234,11.155469271406648" fill="none" id="id49" stroke="none" /><text fill="#e1ed5e" style="font-size:6.75px; font-family:Arial;" text-anchor="middle"><textPath startOffset="22.145653131862478" xlink:href="#id49">January</textPath></text><line stroke="#e1ed5e" stroke-width="0.3" x1="143.13028292997686" x2="145.6673583964461" y1="26.7553504044142" y2="22.446841604673864" /><path d="M 143.63769802327073 25.89364864446614 a86.0,86.0 0 0,1 29.32050498858742,28.57503671076993" fill="none" id="id50" stroke="none" /><text fill="#e1ed5e" style="font-size:6.75px; font-family:Arial;" text-anchor="middle"><textPath startOffset="20.669276256404974" xlink:href="#id50">February</textPath></text><path d="M 110.96478420261332 82.08984904055464 l 12.64060606844646 -20.647480034381218 a45.209571527555305,45.209571527555305 0 0,0 0.6584146997701753,0.4108994687972382 l -12.993184897006348 20.427444768742433" fill="#ceff1d" stroke="none" /><path d="M 116.1254893667686 86.54754324733833 l 3.8503373795601785 -3.2120883840233825 a26.014240692589087,26.014240692589087 0 0,0 0.283125593113484,0.3453671880209522 l -3.90490979191229 3.1455189143039353" fill="#ff3905" stroke="none" /><path d="M 117.01052211995028 87.68569379921539 l 24.463222192370484 -17.709486317375895 a51.20058187615947,51.20058187615947 0 0,0 0.5092870714481073,0.716376045759061 l -24.76362436234855 17.28693304490733" fill="#8bff24" stroke="none" /><line stroke="#e1ed5e" stroke-width="0.3" x1="172.87174338648825" x2="177.1583165268699" y1="56.24261187166439" y2="53.66864786411523" /><path d="M 173.72905801456457 55.72781907015455 a86.0,86.0 0 0,1 12.242430191666344,42.057860355516425" fill="none" id="id51" stroke="none" /><text fill="#e1ed5e" style="font-size:6.75px; font-family:Arial;" text-anchor="middle"><textPath startOffset="22.145653131862474" xlink:href="#id51">March</textPath></text><path d="M 118.70294669586156 90.45014215332178 l 18.80150500043373 -9.6001824192485 a42.110663011004235,42.110663011004235 0 0,0 0.3232095389916647,0.6466355874701117 l -18.963534452637127 9.276014975614638" fill="#f3ff19" stroke="none" /><path d="M 119.58574465831526 92.42381321644754 l 22.833025838818205 -8.832304903715935 a45.481762168364114,45.481762168364114 0 0,0 0.27542307589833853,0.7305924310502171 l -22.981279598530985 8.43904419247156" fill="#cbff1d" stroke="none" /><path d="M 120.05942366710727 93.78553927170692 l 8.967042564326267 -2.7780127081275254 a30.387502700769627,30.387502700769627 0 0,0 0.1500906479058828,0.499602952541004 l -9.013409532235778 2.6236721519957977" fill="#ff760a" stroke="none" /><path d="M 120.26092885502905 94.47779374421319 l 23.470938303588355 -6.39710860526962 a45.32710306136893,45.32710306136893 0 0,0 0.19816689836579912,0.7524719908331721 l -23.577294682758883 5.9932561100636494" fill="#cdff1d" stroke="none" /><path d="M 120.51834098615036 95.52812308129327 l 23.801877851050936 -5.187508495732514 a45.36061644601068,45.36061644601068 0 0,0 0.1592855092927001,0.7622388239690426 l -23.887421071168003 4.778153220478067" fill="#ccff1d" stroke="none" /><path d="M 120.592083275326 95.88100663000786 l 46.540338917928224 -9.309371221795358 a68.46227490482116,68.46227490482116 0 0,0 0.22062361817178527,1.1543959969419644 l -46.693288828382165 8.50907265982008" fill="#3aff90" stroke="none" /><path d="M 120.77682067341334 96.94652285012252 l 27.909833033588143 -4.101784328052171 a49.20963336586674,49.20963336586674 0 0,0 0.11565548785300461,0.8368254963875327 l -27.97613303799636 3.6220705234645525" fill="#a1ff22" stroke="none" /><path d="M 120.82617615685814 97.30363454192243 l 25.777111898622934 -3.3373632110357017 a46.99225829043145,46.99225829043145 0 0,0 0.09670987453616534,0.8008964941806469 l -25.830603859418762 2.894373039931642" fill="#baff1f" stroke="none" /><path d="M 120.86939407059847 97.66154086499901 l 16.622763678963832 -1.8626153419949685 a37.72679312477183,37.72679312477183 0 0,0 0.06659247430830577,0.6442217811100274 l -16.6522885457538 1.5769890386020096" fill="#ffd513" stroke="none" /><line stroke="#e1ed5e" stroke-width="0.3" x1="184.99686870605535" x2="189.99668451229388" y1="99.2704041080226" y2="99.22748670261217" /><path d="M 185.99683186730306 99.26182062694052 a86.0,86.0 0 0,1 -10.086455211305974,41.156179273409016" fill="none" id="id52" stroke="none" /><text fill="#e1ed5e" style="font-size:6.75px; font-family:Arial;" text-anchor="middle"><textPath startOffset="21.40746469413373" xlink:href="#id52">April</textPath></text><path d="M 120.99922638620191 99.81974689727618 l 23.951189964013842 -0.20559215970823042 a44.952072328473186,44.952072328473186 0 0,0 0.0,0.7716905248641117 l -23.951189964013842 -0.2055921597082275" fill="#d1ff1c" stroke="none" /><path d="M 120.99922638620191 100.18025310272382 l 27.369147654455723 0.23493121569772496 a48.37015593685042,48.37015593685042 0 0,0 -0.01425438183801317,0.8302462801187944 l -27.361081841019043 -0.7047244117855905" fill="#aaff21" stroke="none" /><path d="M 120.99303781780057 100.54070618675476 l 20.708628224906107 0.5333808045120739 a41.71549608481534,41.71549608481534 0 0,0 -0.024582967672925872,0.715706281426635 l -20.696420570236334 -0.8887933505028196" fill="#f7ff18" stroke="none" /><path d="M 120.98066250479742 100.90099992219065 l 30.509754562085067 1.3102201362901964 a51.537874848198115,51.537874848198115 0 0,0 -0.04554576380803038,0.8835756502272032 l -30.482767208820466 -1.8337675798941302" fill="#87ff25" stroke="none" /><path d="M 120.93736805541906 101.62068470465957 l 32.85789845564404 2.5434091483402423 a53.95618941894338,53.95618941894338 0 0,0 -0.07940906418923951,0.9228536953855583 l -32.80939576875706 -3.107083891101458" fill="#6eff28" stroke="none" /><path d="M 120.9064616781168 101.97986365728391 l 22.44736327654854 2.1257886407247497 a43.547795799465064,43.547795799465064 0 0,0 -0.0768672668087201,0.743621078011168 l -22.407563617258155 -2.5108142410188488" fill="#e2ff1b" stroke="none" /><path d="M 120.86939407059847 102.33845913500097 l 31.411189388847674 3.5196892884916573 a52.60776853100484,52.60776853100484 0 0,0 -0.10826657154497847,0.8966025238188741 l -31.346140731043032 -4.05838548923394" fill="#7cff26" stroke="none" /><path d="M 120.77682067341334 103.0534771498775 l 19.952797238252074 2.932374081714214 a41.16712511454989,41.16712511454989 0 0,0 -0.10875669877678479,0.6982960229385361 l -19.899519047337023 -3.2744582865842005" fill="#feff18" stroke="none" /><path d="M 120.65975698304385 103.76489593502545 l 30.521169508897994 5.561973798171122 a52.02381892550346,52.02381892550346 0 0,0 -0.16764974839668542,0.877214325652004 l -30.42119346821915 -6.085090688856441" fill="#82ff25" stroke="none" /><path d="M 120.592083275326 104.11899336999214 l 26.479132224937405 5.296568036336068 a48.00366783141237,48.00366783141237 0 0,0 -0.16856668355786494,0.8066526026507261 l -26.384307830555176 -5.750337090272203" fill="#aeff20" stroke="none" /><path d="M 120.51834098615036 104.47187691870673 l 20.541806504522114 4.4769911192194725 a42.024016361076136,42.024016361076136 0 0,0 -0.15966952663509018,0.7035333953590182 l -20.46192611632936 -4.828958848517508" fill="#f4ff19" stroke="none" /><path d="M 120.43855184770803 104.8234425847677 l 16.835914655321073 3.9732300168368795 a38.298398164221695,38.298398164221695 0 0,0 -0.15649906080645795,0.6385695735258132 l -16.76522806799832 -4.261655414970792" fill="#ffdd14" stroke="none" /><path d="M 120.26092885502905 105.52220625578681 l 26.78231202246418 7.299638237374076 a48.759267923797324,48.759267923797324 0 0,0 -0.2270359401394514,0.8056704574213276 l -26.653057590250146 -7.758316618698411" fill="#a6ff21" stroke="none" /><path d="M 120.16314734710363 105.8691983318838 l 18.950062602858466 5.516087042520523 a40.736567303179086,40.736567303179086 0 0,0 -0.20120698433835954,0.6697526118373043 l -18.852579298516478 -5.840577257948551" fill="#fffb17" stroke="none" /><path d="M 119.94978838288452 106.5578916946017 l 26.467874635342405 8.70051611142824 a48.861216203127675,48.861216203127675 0 0,0 -0.26877060910313444,0.7945725484059105 l -26.314618604666904 -9.15359033430831" fill="#a5ff21" stroke="none" /><path d="M 119.83427380445688 106.89939002012753 l 25.957347210644844 9.029312797621337 a48.482946781800166,48.482946781800166 0 0,0 -0.28018486558132466,0.7837269354316789 l -25.798522175019578 -9.473574689433937" fill="#a9ff21" stroke="none" /><path d="M 119.71291397450082 107.23885506374661 l 19.464837421693677 7.147757917337519 a41.7357261531355,41.7357261531355 0 0,0 -0.2527382740667623,0.6704182990753723 l -19.339268463812473 -7.48084449660705" fill="#f7ff18" stroke="none" /><path d="M 119.4528033332814 107.91128576633889 l 25.273890342613615 10.278671176685387 a48.284072537084356,48.284072537084356 0 0,0 -0.3188453800675831,0.7651128405771845 l -25.093719118009545 -10.71101652670385" fill="#abff21" stroke="none" /><path d="M 119.16976305983485 108.57439118712176 l 56.61636364139883 25.323779325724928 a83.02182221857981,83.02182221857981 0 0,0 -0.5930744328013641,1.2959746685649431 l -56.173304743742406 -26.291942976504558" fill="#4cdbff" stroke="none" /><path d="M 118.8641267826498 109.22738970284198 l 25.46461055005057 12.456017067937214 a49.347817405622074,49.347817405622074 0 0,0 -0.37875645201189295,0.7577666229124451 l -25.247034184826944 -12.891315547013406" fill="#9fff22" stroke="none" /><path d="M 118.70294669586154 109.54985784667822 l 41.26732220739052 21.07138876040586 a67.33568070570179,67.33568070570179 0 0,0 -0.5344911735104612,1.0249573005092008 l -40.89952296490511 -21.776692304019562" fill="#38ff83" stroke="none" /><path d="M 118.5362547648365 109.86951160357373 l 18.081911371844075 9.627599337798639 a41.485267581078965,41.485267581078965 0 0,0 -0.3400896065016553,0.6257265708723571 l -17.91397641572708 -9.9365807421456" fill="#faff18" stroke="none" /><line stroke="#e1ed5e" stroke-width="0.3" x1="174.33088141563837" x2="178.70328620479359" y1="141.23008692659167" y2="143.65538615756765" /><path d="M 175.20536237346943 141.71514677278685 a86.0,86.0 0 0,1 -30.301960400862466,31.631185727798858" fill="none" id="id53" stroke="none" /><text fill="#e1ed5e" style="font-size:6.75px; font-family:Arial;" text-anchor="middle"><textPath startOffset="22.145653131862474" xlink:href="#id53">May</textPath></text><path d="M 118.36410011445183 110.18625677009912 l 27.338457605136465 15.164181589559012 a52.26249618167053,52.26249618167053 0 0,0 -0.44190836107439524,0.7808097311771227 l -27.074115879040693 -15.631248090835257" fill="#7fff26" stroke="none" /><path d="M 118.18653347947321 110.5 l 52.03407315488054 30.04188614300294 a81.08377228600591,81.08377228600591 0 0,0 -0.7063025539505721,1.1994561490952194 l -51.5106968908002 -30.930693460391712" fill="#49edff" stroke="none" /><path d="M 117.81537515405839 111.11811171558189 l 26.06221837873567 16.264751821668266 a51.72102502589014,51.72102502589014 0 0,0 -0.47652872921354006,0.749182311641808 l -25.77917195789624 -16.709747807988748" fill="#85ff25" stroke="none" /><path d="M 117.62189284568427 111.42229804090321 l 13.192019363177684 8.55090756975549 a36.72092221038437,36.72092221038437 0 0,0 -0.3474071344522126,0.5260186803252239 l -13.043287789804745 -8.776106128419775" fill="#ffc912" stroke="none" /><path d="M 117.423217284605 111.72311816256416 l 22.795232074696777 15.33764945874066 a48.474826591964,48.474826591964 0 0,0 -0.4704603412161853,0.68641569771205 l -22.52858199666527 -15.726699891522754" fill="#a9ff21" stroke="none" /><path d="M 117.21940702142032 112.02048342749411 l 24.589314766085643 17.165251409150358 a50.98800187750054,50.98800187750054 0 0,0 -0.5071725594445657,0.7134017198184869 l -24.291027108111116 -17.58483035567835" fill="#8dff24" stroke="none" /><path d="M 116.79662413953412 112.60449989151573 l 23.76291641095726 17.83213548364344 a50.709615484909214,50.709615484909214 0 0,0 -0.5284618608569489,0.6917735397153838 l -23.453302572746008 -18.237429936599703" fill="#90ff24" stroke="none" /><path d="M 116.57777611688842 112.89097897827486 l 48.58838095343562 37.78261891358639 a82.54963083273108,82.54963083273108 0 0,0 -0.8794820740680153,1.1111968701723165 l -47.93263244872605 -38.611135727673386" fill="#4bdfff" stroke="none" /><path d="M 116.1254893667686 113.45245675266167 l 18.914834638567655 15.779427784898788 a45.63252546173848,45.63252546173848 0 0,0 -0.5069674414820765,0.5972063713143865 l -18.641172633578464 -16.10180093866273" fill="#c9ff1d" stroke="none" /><path d="M 115.89218393027572 113.72728997021213 l 18.119370124427693 15.651080359180197 a44.94301338836695,44.94301338836695 0 0,0 -0.5093304732758331,0.5795245820824972 l -17.848028587193276 -15.959817219073988" fill="#d1ff1c" stroke="none" /><path d="M 115.6541949942343 113.99807769240083 l 15.120041265279113 13.520434134213755 a41.28343627301241,41.28343627301241 0 0,0 -0.47692650271335935,0.5242257717081831 l -14.885717061723874 -13.77799748147961" fill="#fdff18" stroke="none" /><path d="M 115.16444852881244 114.52719865689866 l 21.1823804056599 20.292241263792082 a50.33373987677041,50.33373987677041 0 0,0 -0.6030777762113039,0.6188109266451125 l -20.830915828297787 -20.652874882504932" fill="#94ff23" stroke="none" /><path d="M 114.91283532996324 114.78537596483092 l 44.738505989889745 44.356127894492765 a84.0,84.0 0 0,0 -1.0240323194801406,1.015279959085353 l -43.97048175027964 -45.117587863806776" fill="#4dd2ff" stroke="none" /><path d="M 114.39649973595853 115.28858382429668 l 18.828833850507728 19.995569056152657 a48.465392151749725,48.465392151749725 0 0,0 -0.6105952326165086,0.5651578316523121 l -18.482808846577253 -20.31584463393735" fill="#a9ff21" stroke="none" /><path d="M 114.13192950727249 115.5334660781643 l 20.17666938648605 22.177694087989188 a50.98246325090709,50.98246325090709 0 0,0 -0.652417661629078,0.5833958960356631 l -19.792986698033594 -22.52078551390824" fill="#8dff24" stroke="none" /><path d="M 113.86319453409587 115.77377054828091 l 19.121243391908624 21.756464941755933 a49.96490489565716,49.96490489565716 0 0,0 -0.6491167308206015,0.5606915718811412 l -18.74494718132517 -22.08150064610179" fill="#98ff23" stroke="none" /><path d="M 113.59037401385872 116.0094264158162 l 9.047555502645269 10.65799763236141 a34.98038533463467,34.98038533463467 0 0,0 -0.4611175457873202,0.3846806569096083 l -8.863263622696053 -10.811740473182889" fill="#ffb210" stroke="none" /><path d="M 113.31354834802062 116.24036423190432 l 18.676204081309134 22.781932270890987 a50.45873447523115,50.45873447523115 0 0,0 -0.6745833729890479,0.5433966140285301 l -18.28236993796483 -23.09917717871292" fill="#93ff23" stroke="none" /><path d="M 113.03279911837588 116.46651593811092 l 14.567496395147602 18.405555812707433 a44.472887253112404,44.472887253112404 0 0,0 -0.6026924497902096,0.46865729430956227 l -14.249394000722162 -18.65291415863779" fill="#d7ff1c" stroke="none" /><path d="M 112.7482090630111 116.68781488649013 l 15.561988152226032 20.371142037794673 a46.63511075018067,46.63511075018067 0 0,0 -0.6403378474585708,0.4805214584654519 l -15.209997315856695 -20.63528252352414" fill="#beff1f" stroke="none" /><path d="M 112.16784306229584 117.11559508785304 l 13.935176916787782 19.601571483478182 a45.050171731696224,45.050171731696224 0 0,0 -0.634145328921647,0.442682689795479 l -13.596636496692376 -19.837898989078784" fill="#d0ff1d" stroke="none" /><path d="M 111.8722381534696 117.32195027204791 l 13.175008006320953 19.222730421106785 a44.30438157963359,44.30438157963359 0 0,0 -0.631028808763579,0.42458434445709226 l -12.843082909460371 -19.446064439621" fill="#d9ff1c" stroke="none" /><path d="M 111.5731344415666 117.5232005979908 l 17.26324234898031 26.138749202326103 a52.324970012144156,52.324970012144156 0 0,0 -0.7537645343045104,0.4885810644114411 l -16.811992182418788 -26.431244108441437" fill="#7fff26" stroke="none" /><line stroke="#e1ed5e" stroke-width="0.3" x1="143.1302829299769" x2="145.66735839644613" y1="173.24464959558577" y2="177.55315839532614" /><path d="M 143.63769802327073 174.10635135553383 a86.0,86.0 0 0,1 -40.68552437913181,11.842963189579606" fill="none" id="id54" stroke="none" /><text fill="#e1ed5e" style="font-size:6.75px; font-family:Arial;" text-anchor="middle"><textPath startOffset="21.407464694133747" xlink:href="#id54">June</textPath></text><path d="M 109.71004243097381 118.62028667847754 l 16.504540103501434 31.64963185364839 a56.69452395675788,56.69452395675788 0 0,0 -0.8668127771629579,0.4426007803049687 l -15.958800104624894 -31.928290585626197" fill="#51ff2b" stroke="none" /><path d="M 109.3889696526874 118.78422872680471 l 15.734486405686038 31.479512925958606 a56.19280887491525,56.19280887491525 0 0,0 -0.8665459628246062,0.42387105358946586 l -15.191780193599362 -31.744977729645296" fill="#56ff2a" stroke="none" /><path d="M 109.06512990194946 118.94263497670748 l 8.324336949903639 17.394662621572905 a40.283901922947976,40.283901922947976 0 0,0 -0.6263404108159928,0.2931589380432352 l -8.024507825216139 -17.534997791186676" fill="#fff517" stroke="none" /><path d="M 108.73861861582097 119.09545874513695 l 24.715691920640545 54.00824731882033 a80.39491733782344,80.39491733782344 0 0,0 -1.2598518940194037,0.5635157275257264 l -23.784926623765514 -54.424566797255906" fill="#49f3ff" stroke="none" /><path d="M 108.4095320186766 119.2426549942271 l 10.555613312782016 24.153308980717757 a47.35912189597753,47.35912189597753 0 0,0 -0.7477439853063894,0.3191674437214865 l -10.139434252305195 -24.33095107409865" fill="#b5ff1f" stroke="none" /><path d="M 108.07796709384702 119.3841803445677 l 11.53649326651445 27.683384126724427 a50.99100587836479,50.99100587836479 0 0,0 -0.8108675682139013,0.3297727808629622 l -11.059571237110108 -27.87734416416668" fill="#8dff24" stroke="none" /><path d="M 107.407793817531 119.65005319985036 l 10.171649688030522 26.98150926218119 a49.83512267081902,49.83512267081902 0 0,0 -0.8030831495453576,0.294903256373756 l -9.706977386831037 -27.15214336756367" fill="#9aff23" stroke="none" /><path d="M 107.06938296918513 119.77432235084164 l 9.371018287977328 26.21240597515058 a48.83713725870021,48.83713725870021 0 0,0 -0.7918458736396394,0.2754450993230164 l -8.919666642292666 -26.36940950704219" fill="#a5ff21" stroke="none" /><path d="M 106.72888874123015 119.89276391827305 l 9.254333867845713 27.358793692920866 a49.88159080918783,49.88159080918783 0 0,0 -0.8134909839098375,0.267410644395232 l -8.78332014628814 -27.51362525871812" fill="#99ff23" stroke="none" /><path d="M 106.38641147887787 120.00534299687104 l 7.480924433248863 23.43388923745205 a45.59901207709673,45.59901207709673 0 0,0 -0.7477355685975329,0.23165039052527203 l -7.077548231779706 -23.558856215783965" fill="#caff1d" stroke="none" /><path d="M 105.69591212413111 120.21278271476187 l 5.341106377731995 18.95370228977933 a40.69188279032342,40.69188279032342 0 0,0 -0.673971126926661,0.18369382766034048 l -5.014953849870639 -19.042596611583814" fill="#fffa17" stroke="none" /><path d="M 105.3480935250658 120.30758222061773 l 8.399384869797212 31.89383245572928 a53.98130098866794,53.98130098866794 0 0,0 -0.898132420487962,0.22830174916852633 l -7.850647156083851 -32.03331943673308" fill="#6dff28" stroke="none" /><path d="M 104.9986988182912 120.39639698878246 l 2.7255330729025977 11.121105027884289 a32.45021866920973,32.45021866920973 0 0,0 -0.5421780159588373,0.12795253549208693 l -2.534222903203881 -11.166253707022602" fill="#ff910d" stroke="none" /><path d="M 103.2317021107853 120.74984581791261 l 7.36004920712164 47.25679565277538 a68.82651000961101,68.82651000961101 0 0,0 -1.1689851518604564,0.17180056110893027 l -6.547738949653498 -47.3761772871832" fill="#3aff94" stroke="none" /><path d="M 102.51750503828377 120.84855314841334 l 4.726211930612066 39.139814668734076 a60.42413184226015,60.42413184226015 0 0,0 -1.0308474817153224,0.11550861046828856 l -4.053628547295944 -39.215179039709334" fill="#30ff33" stroke="none" /><path d="M 102.15924093988457 120.88869738790638 l 1.202399638457589 11.632125773055858 a32.69410598937573,32.69410598937573 0 0,0 -0.5587585197296923,0.05291501275744477 l -1.0025415553428816 -11.651052541318487" fill="#ff940d" stroke="none" /><path d="M 101.80034050326958 120.92268563240118 l 2.406635726493882 27.96875515808862 a49.07210645130047,49.07210645130047 0 0,0 -0.8399065023946459,0.0650140752253149 l -1.9261602293240003 -28.00594700030899" fill="#a2ff22" stroke="none" /><path d="M 101.44090949804482 120.95050786540614 l 1.8419027563029784 26.78086183455678 a47.84412722301279,47.84412722301279 0 0,0 -0.819856161833049,0.049320510813430966 l -1.3819022423374643 -26.808534323194902" fill="#b0ff20" stroke="none" /><path d="M 101.08105385017728 120.97215588758144 l 1.4588536626813657 28.30137132012938 a49.33894621556985,49.33894621556985 0 0,0 -0.8462198774261642,0.03634032259671119 l -0.972808024654372 -28.322244211151922" fill="#9fff22" stroke="none" /><path d="M 100.72087961077811 120.9876233191556 l 1.8822664460641778 54.80013384431848 a75.83245021270889,75.83245021270889 0 0,0 -1.3013812103834987,0.03351896366252364 l -0.9412719216099351 -54.82437052533105" fill="#43ffde" stroke="none" /><line stroke="#e1ed5e" stroke-width="0.3" x1="101.45913802915013" x2="101.54496967792366" y1="184.9874750549273" y2="189.98673829345242" /><path d="M 101.47630435890484 185.9873277026323 a86.0,86.0 0 0,1 -42.54439059252881,-10.42667462771756" fill="none" id="id55" stroke="none" /><text fill="#e1ed5e" style="font-size:6.75px; font-family:Arial;" text-anchor="middle"><textPath startOffset="22.145653131862474" xlink:href="#id55">July</textPath></text><path d="M 100.0 121.0 l 2.316260921158132e-15 18.91370575394312 a39.91370575394312,39.91370575394312 0 0,0 -0.6851718347045436,-0.005881376143724186 l 0.3246789098556891 -18.91091877599383" fill="#fff116" stroke="none" /><path d="M 98.91894614982273 120.97215588758144 l -1.471461836492206 28.54596652375935 a49.583866161032915,49.583866161032915 0 0,0 -0.8496682991026938,-0.051113934961502724 l 1.9612744877273462 -28.516500610973157" fill="#9dff22" stroke="none" /><line stroke="#e1ed5e" stroke-width="0.3" x1="58.13341422392154" x2="55.67067388415222" y1="173.97424548756322" y2="178.32567169271397" /><path d="M 57.64086615596768 174.84453072859336 a86.0,86.0 0 0,1 -31.369924170532247,-30.572349798747897" fill="none" id="id56" stroke="none" /><text fill="#e1ed5e" style="font-size:6.75px; font-family:Arial;" text-anchor="middle"><textPath startOffset="22.145653131862474" xlink:href="#id56">August</textPath></text><line stroke="#e1ed5e" stroke-width="0.3" x1="26.387840678322732" x2="22.057713659400548" y1="142.50000000000003" y2="145.00000000000006" /><path d="M 25.521815274538298 143.00000000000003 a86.0,86.0 0 0,1 -11.493303480769221,-40.785679425670985" fill="none" id="id57" stroke="none" /><text fill="#e1ed5e" style="font-size:6.75px; font-family:Arial;" text-anchor="middle"><textPath startOffset="21.40746469413373" xlink:href="#id57">September</textPath></text><path d="M 79.17382384314188 102.69636545807758 l -20.067365450057405 2.598122220162631 a41.23485594653593,41.23485594653593 0 0,0 -0.08486116416155624,-0.7027721749722847 l 20.109008700478622 -2.2532563682669466" fill="#fdff18" stroke="none" /><path d="M 79.13060592940153 102.33845913500099 l -20.523128280631003 2.2996593309938054 a41.6515671914231,41.6515671914231 0 0,0 -0.07352018786548505,-0.7112411254606165 l 20.559580860978155 -1.9470136832502571" fill="#f8ff18" stroke="none" /><path d="M 79.0935383218832 101.97986365728391 l -20.718083743564716 1.9620240710260304 a41.81077923722815,41.81077923722815 0 0,0 -0.06153427230510659,-0.7151215188016677 l 20.748711638567563 -1.6060815048487007" fill="#f6ff19" stroke="none" /><path d="M 79.03789590574601 101.26102812881392 l -32.236561653332394 1.939271498620185 a53.29483985367416,53.29483985367416 0 0,0 -0.0470984532309856,-0.9136974102282212 l 32.26510169601995 -1.3856022950152331" fill="#75ff27" stroke="none" /><path d="M 79.00696218219943 100.54070618675478 l -27.674426637766054 0.7127950622392976 a48.68360465202912,48.68360465202912 0 0,0 -0.014346753210122997,-0.835626449455585 l 27.682584822574846 -0.23762169681466022" fill="#a7ff21" stroke="none" /><line stroke="#e1ed5e" stroke-width="0.3" x1="15.003131293944662" x2="10.003315487706104" y1="100.72959589197737" y2="100.7725132973878" /><path d="M 14.003168132696942 100.73817937305945 a86.0,86.0 0 0,1 10.791469493833604,-42.45332614584628" fill="none" id="id58" stroke="none" /><text fill="#e1ed5e" style="font-size:6.75px; font-family:Arial;" text-anchor="middle"><textPath startOffset="22.145653131862435" xlink:href="#id58">October</textPath></text><path d="M 79.00077361379809 100.18025310272382 l -22.710160889105527 0.1949394176877031 a43.71099753391794,43.71099753391794 0 0,0 0.0,-0.7503850408230329 l 22.710160889105527 0.19493941768769474" fill="#e0ff1b" stroke="none" /><path d="M 79.00077361379809 99.81974689727619 l -27.341737156375217 -0.2346959295383363 a48.34274442896417,48.34274442896417 0 0,0 0.0142463038384215,-0.8297757771400022 l 27.33367942093813 0.7040186226473909" fill="#aaff21" stroke="none" /><path d="M 79.00696218219943 99.45929381324524 l -29.69934348466896 -0.764949737340952 a50.709193047287684,50.709193047287684 0 0,0 0.02988295886177711,-0.8700097420926426 l 29.681835838810336 1.2746657439977331" fill="#90ff24" stroke="none" /><path d="M 79.03789590574601 98.7389718711861 l -27.161137129111328 -1.6339465626339467 a48.21023982834281,48.21023982834281 0 0,0 0.05678716022073704,-0.8256728465409789 l 27.129086007725526 2.0999628333292506" fill="#acff21" stroke="none" /><path d="M 79.06263194458094 98.37931529534042 l -51.61064891466814 -3.994990634551577 a72.76503676771891,72.76503676771891 0 0,0 0.10709065146455783,-1.2445556997094935 l 51.53446464050584 4.880367381636751" fill="#3fffbe" stroke="none" /><path d="M 79.13060592940154 97.66154086499901 l -4.722259961239696 -0.5291390783486091 a25.751813054589075,25.751813054589075 0 0,0 0.052997125488113236,-0.4388922249010966 l 4.712480749491915 0.610124980173142" fill="#ff3505" stroke="none" /><path d="M 79.17382384314186 97.30363454192245 l -39.39404326924948 -5.100347597426716 a60.72284217819864,60.72284217819864 0 0,0 0.142714534849848,-1.0326112810074688 l 39.30068421784443 5.775847186634252" fill="#30ff36" stroke="none" /><path d="M 79.22317932658666 96.9465228501225 l -34.39285865541601 -5.054565839212494 a55.76229800105796,55.76229800105796 0 0,0 0.14731471847809346,-0.9458661690779584 l 34.30102244479965 5.644220190221903" fill="#5bff2a" stroke="none" /><path d="M 79.2786578344484 96.59031103205396 l -5.355505379849417 -0.8812463722454107 a26.42752549899047,26.42752549899047 0 0,0 0.07750209433733139,-0.4470114847576241 l 5.339588468019851 0.9730508899236274" fill="#ff3f05" stroke="none" /><path d="M 79.34024301695615 96.23510406497455 l -30.36601468931754 -5.5336994215645845 a51.86610888013053,51.86610888013053 0 0,0 0.16714151870550756,-0.8745550531503357 l 30.266546878329873 6.054157039748235" fill="#84ff25" stroke="none" /><path d="M 79.407916724674 95.88100663000787 l -26.416353073565684 -5.284010447829044 a47.93964506299312,47.93964506299312 0 0,0 0.16834186520059308,-0.8055767654260443 l 26.321753497540726 5.7367036645404985" fill="#afff20" stroke="none" /><path d="M 79.48165901384962 95.52812308129327 l -4.2831832345195915 -0.9334998505955425 a25.383729073691896,25.383729073691896 0 0,0 0.09644504158302902,-0.4249546485192502 l 4.2665273313789 1.0068888330538008" fill="#ff3004" stroke="none" /><path d="M 79.56144815229197 95.17655741523228 l -25.147317295895135 -5.93469840923629 a46.83811549608482,46.83811549608482 0 0,0 0.19139497828734955,-0.7809568251088745 l 25.04173479109149 6.365511058953283" fill="#bbff1f" stroke="none" /><path d="M 79.73907114497095 94.47779374421319 l -27.551714384047557 -7.509342272403964 a49.5567362782277,49.5567362782277 0 0,0 0.23074916195939854,-0.8188473717034808 l 27.418746730013577 7.981197568010457" fill="#9dff22" stroke="none" /><path d="M 79.83685265289637 94.1308016681162 l -23.420984133133377 -6.8175071400750005 a45.39305026784184,45.39305026784184 0 0,0 0.22420639143051332,-0.7463101578953251 l 23.300501421699234 7.218554901561049" fill="#ccff1d" stroke="none" /><path d="M 79.94057633289273 93.78553927170692 l -26.380949553822237 -8.172885607184098 a48.617939070637235,48.617939070637235 0 0,0 0.2538210270634908,-0.7950907521410471 l 26.23676381098149 8.624545393016536" fill="#a7ff21" stroke="none" /><path d="M 80.05021161711548 93.44210830539832 l -4.0361679507384665 -1.3267685738899146 a25.248642909827822,25.248642909827822 0 0,0 0.13888506388565033,-0.4105890131193349 l 4.012797465280451 1.395859261483411" fill="#ff2e04" stroke="none" /><path d="M 80.16572619554312 93.10060997987247 l -7.131684967902892 -2.480770235368343 a28.55083779736405,28.55083779736405 0 0,0 0.16499642000909806,-0.4615243522973059 l 7.088048377849851 2.6028295440465707" fill="#ff5c08" stroke="none" /><path d="M 80.5471966667186 92.08871423366112 l -10.676961573227542 -4.342227321935999 a32.52616356605896,32.52616356605896 0 0,0 0.21478753633293277,-0.5154118965419254 l 10.600848192358132 4.524871727919188" fill="#ff920d" stroke="none" /><path d="M 80.68587082218212 91.75594674310238 l -34.010615728346274 -14.517109458208784 a57.97929757638522,57.97929757638522 0 0,0 0.3985831483088195,-0.9120362455824854 l 33.756398698020476 15.098807773567136" fill="#45ff2d" stroke="none" /><path d="M 80.83023694016515 91.42560881287825 l -4.581213601717919 -2.0491185733638786 a26.018605881344946,26.018605881344946 0 0,0 0.18586643261979,-0.4061516988247154 l 4.545362704243082 2.1274592544032656" fill="#ff3905" stroke="none" /><path d="M 80.9802524753101 91.09779779509293 l -22.241078125374734 -10.409947580544946 a45.55672137742977,45.55672137742977 0 0,0 0.3375986088414038,-0.7054512494687781 l 22.059100258573427 10.790211332078812" fill="#caff1d" stroke="none" /><path d="M 81.1358732173502 90.77261029715801 l -14.788201495263552 -7.233650397560546 a37.46258186125867,37.46258186125867 0 0,0 0.2875343902718961,-0.575261392195852 l 14.661847191779911 7.486443645920168" fill="#ffd213" stroke="none" /><path d="M 81.29705330413844 90.45014215332179 l -28.080923351483012 -14.338319547767728 a52.52975838356143,52.52975838356143 0 0,0 0.4169660410112235,-0.7995873626723335 l 27.83064924149685 14.818253153544548" fill="#7dff26" stroke="none" /><path d="M 81.46374523516351 90.13048839642627 l -3.321420206943946 -1.7684691804605053 a24.762886582576495,24.762886582576495 0 0,0 0.20300219438753248,-0.37350117305939523 l 3.290572662941063 1.82522518699452" fill="#ff2703" stroke="none" /><path d="M 81.63589988554816 89.8137432299009 l -12.74358079577855 -7.068649449049192 a35.57273675505323,35.57273675505323 0 0,0 0.3007871982178794,-0.5314621583783178 l 12.620360232539301 7.286368377526616" fill="#ffba11" stroke="none" /><line stroke="#e1ed5e" stroke-width="0.3" x1="26.387840678322718" x2="22.05771365940052" y1="57.49999999999999" y2="54.99999999999999" /><path d="M 25.521815274538284 56.99999999999999 a86.0,86.0 0 0,1 29.574782752854787,-30.34633250058573" fill="none" id="id59" stroke="none" /><text fill="#e1ed5e" style="font-size:6.75px; font-family:Arial;" text-anchor="middle"><textPath startOffset="21.40746469413373" xlink:href="#id59">November</textPath></text><path d="M 81.81346652052679 89.5 l -30.45193240375095 -17.581431370649902 a56.1628627412998,56.1628627412998 0 0,0 0.48922210046459147,-0.8308060807558673 l 30.145636593156578 18.101588619699342" fill="#57ff2a" stroke="none" /><path d="M 81.99639281039701 89.18935116829357 l -3.1805062659014043 -1.909802629306322 a24.70984719231715,24.70984719231715 0 0,0 0.22148499214314518,-0.3617790894224616 l 3.147253309302866 1.9641188348533267" fill="#ff2703" stroke="none" /><path d="M 82.18462484594161 88.88188828441811 l -3.233064322759022 -2.017671253805083 a24.81099753391794,24.81099753391794 0 0,0 0.22859471790127597,-0.35938886511423956 l 3.197951913231856 2.0728737935979944" fill="#ff2803" stroke="none" /><path d="M 82.37810715431573 88.57770195909679 l -26.683459002048938 -17.295895744722408 a52.79866339842499,52.79866339842499 0 0,0 0.4995144797579835,-0.7563285879547225 l 26.382620083370227 17.75140421101619" fill="#7aff26" stroke="none" /><path d="M 82.576782715395 88.27688183743585 l -24.26416113045251 -16.326010483673983 a50.245309601329154,50.245309601329154 0 0,0 0.48764332255442655,-0.7114861810041606 l 23.98032807108277 16.74013139974818" fill="#95ff23" stroke="none" /><path d="M 82.78059297857968 87.97951657250589 l -30.784829727097257 -21.490202019876406 a58.54376811378249,58.54376811378249 0 0,0 0.582329011149124,-0.8191186812412536 l 30.41138561741816 22.01549792782718" fill="#3fff2d" stroke="none" /><path d="M 82.98947788004972 87.6856937992154 l -1.7056400253829649 -1.234751843169246 a23.10566379329613,23.10566379329613 0 0,0 0.23534546769339637,-0.3192913263318762 l 1.6841925381057499 1.2638494787699854" fill="#ff0f01" stroke="none" /><path d="M 83.2033758604659 87.39550010848427 l -34.90766004762293 -26.19535887855711 a64.64334493112106,64.64334493112106 0 0,0 0.673669915018064,-0.8818555438534321 l 34.45283815525056 26.790735335651423" fill="#35ff65" stroke="none" /><path d="M 83.42222388311158 87.10902102172516 l -14.053247388177077 -10.927890169353411 a38.802037684117984,38.802037684117984 0 0,0 0.41339611378325475,-0.5223124851795743 l 13.86358484375226 11.167522598447668" fill="#ffe315" stroke="none" /><path d="M 83.64595745247003 86.82634096563983 l -21.14111611000255 -17.02978663713067 a48.14701499765312,48.14701499765312 0 0,0 0.5240073058037624,-0.6392037106844826 l 20.845661984960156 17.390192629513646" fill="#adff20" stroke="none" /><path d="M 83.8745106332314 86.54754324733833 l -43.757130099838236 -36.50375420554585 a77.98430051929282,77.98430051929282 0 0,0 0.8663886320117127,-1.020603630006569 l 43.12404690431941 37.24952461800198" fill="#46fff3" stroke="none" /><path d="M 84.10781606972428 86.27271002978789 l -2.7433527152302277 -2.3696427361875325 a24.6250780429292,24.6250780429292 0 0,0 0.27907124397015926,-0.31753184723636974 l 2.702270407301476 2.4163868612352024" fill="#ff2503" stroke="none" /><path d="M 84.34580500576568 86.00192230759919 l -22.791974212733194 -20.380723883313333 a51.57528404646069,51.57528404646069 0 0,0 0.5958229756859619,-0.6549138231015077 l 22.43875353620537 20.768975281972498" fill="#87ff25" stroke="none" /><path d="M 84.58840730492382 85.73525988315684 l -15.228221139700816 -14.095014142766091 a41.750135969781184,41.750135969781184 0 0,0 0.4913477402689937,-0.5217942730355677 l 14.98401756569555 14.35434987574617" fill="#f7ff18" stroke="none" /><path d="M 84.83555147118756 85.47280134310135 l -0.7552679682781256 -0.7235296287578079 a22.045908613406247,22.045908613406247 0 0,0 0.2641448375122011,-0.27103587317762196 l 0.742736329615122 0.7363881940031601" fill="#ff0000" stroke="none" /><path d="M 85.08716467003674 85.21462403516908 l -18.509877297739987 -18.351674168901905 a47.06529306144344,47.06529306144344 0 0,0 0.5737664431038131,-0.5688624858780982 l 18.192118934506198 18.666716665008675" fill="#b9ff1f" stroke="none" /><path d="M 85.34317274990677 84.96080404539775 l -19.1471643107632 -19.64667735595388 a48.43366239262113,48.43366239262113 0 0,0 0.6004102348147783,-0.5751794231235755 l 18.80708159008312 19.97246890938302" fill="#a9ff21" stroke="none" /><path d="M 85.60350026404147 84.71141617570332 l -21.505455931336744 -22.838048950519365 a52.36974840002682,52.36974840002682 0 0,0 0.6597845862107536,-0.6106867629847386 l 21.110241573812036 23.203853459636466" fill="#7eff26" stroke="none" /><path d="M 85.86807049272753 84.46653392183569 l -2.4390821062771257 -2.680978499094262 a24.62446785525365,24.62446785525365 0 0,0 0.3151169385033256,-0.2817795095171407 l 2.3927001409504083 2.7224535384948036" fill="#ff2503" stroke="none" /><path d="M 86.13680546590413 84.22622945171909 l -3.612831888968438 -4.110739491243607 a26.472726324494676,26.472726324494676 0 0,0 0.34391918894973195,-0.29706920419157545 l 3.5417332202558574 4.172152827899894" fill="#ff3f06" stroke="none" /><path d="M 86.40962598614128 83.9905735841838 l -9.91543141464851 -11.680353274458293 a36.32143703295311,36.32143703295311 0 0,0 0.47879552337350195,-0.3994282545510614 l 9.713461557113098 11.848843712921237" fill="#ffc412" stroke="none" /><path d="M 86.96720088162412 83.53348406188908 l -2.0959812435412486 -2.648203830909236 a24.377294909142385,24.377294909142385 0 0,0 0.3303588432302762,-0.25688903465346274 l 2.0502124556757275 2.6837939171835035" fill="#ff2203" stroke="none" /><path d="M 87.83215693770416 82.88440491214696 l -16.249443173654452 -22.856876797264626 a49.044272505792684,49.044272505792684 0 0,0 0.690367985834469,-0.48193047079221 l 15.854680096646218 23.132452083861963" fill="#a3ff22" stroke="none" /><path d="M 88.12776184653039 82.6780497279521 l -10.73577746368628 -15.663820162114844 a39.989791463332864,39.989791463332864 0 0,0 0.5695759554719138,-0.38323612220875997 l 10.465305220117376 15.845805958380714" fill="#fff216" stroke="none" /><path d="M 88.4268655584334 82.4767994020092 l -11.472889874011855 -17.37141754604495 a41.81810148933476,41.81810148933476 0 0,0 0.6024084062979821,-0.39047385087046693 l 11.172995835456847 17.565805238619323" fill="#f6ff19" stroke="none" /><path d="M 88.72937992617638 82.28071324371311 l -22.88271505539053 -35.975428785020846 a63.6362536413825,63.6362536413825 0 0,0 0.9267737653796159,-0.5783753734882082 l 22.261777161221218 36.36293995535059" fill="#34ff59" stroke="none" /><path d="M 89.03521579738668 82.08984904055464 l -0.9031297546222344 -1.4751945813394032 a22.729694310130306,22.729694310130306 0 0,0 0.33452399832019736,-0.20087204933611752 l 0.8776729997446028 1.490480631211444" fill="#ff0a01" stroke="none" /><line stroke="#e1ed5e" stroke-width="0.3" x1="56.869717070023135" x2="54.33264160355391" y1="26.7553504044142" y2="22.446841604673864" /><path d="M 56.362301976729285 25.89364864446614 a86.0,86.0 0 0,1 42.16139366436587,-11.88097634709845" fill="none" id="id60" stroke="none" /><text fill="#e1ed5e" style="font-size:6.75px; font-family:Arial;" text-anchor="middle"><textPath startOffset="22.145653131862474" xlink:href="#id60">December</textPath></text><path d="M 89.34428304082924 81.90426304109057 l -14.83760615554234 -25.197499062651953 a50.24155460024884,50.24155460024884 0 0,0 0.7469424653619368,-0.43124743344587463 l 14.402871222320005 25.448493393374005" fill="#95ff23" stroke="none" /><path d="M 89.65649057296885 81.72400993836675 l -14.629206052094709 -25.84840535060139 a50.701072857451514,50.701072857451514 0 0,0 0.7611337088110699,-0.42218803785686654 l 14.183328155127537 26.095726303891404" fill="#90ff24" stroke="none" /><path d="M 89.97174638481275 81.54914285379989 l -16.478221084827688 -30.318070815362105 a55.506770177543004,55.506770177543004 0 0,0 0.8410892890504339,-0.4478326718767432 l 15.955342979990693 30.596473954961425" fill="#5dff2a" stroke="none" /><path d="M 90.61103034731259 81.2157712731953 l -10.453954322555042 -20.9149114714878 a44.38201622696895,44.38201622696895 0 0,0 0.6844124320090067,-0.33478041683994003 l 10.093381641283981 21.091285638424957" fill="#d8ff1c" stroke="none" /><path d="M 91.92203290615298 80.6158196554323 l -1.2682530511017573 -3.0433456313322096 a24.297031761050803,24.297031761050803 0 0,0 0.386375493472242,-0.15713554954516204 l 1.2158230964390744 3.0646684374566626" fill="#ff2103" stroke="none" /><path d="M 92.592206182469 80.34994680014964 l -1.4923265313949823 -3.958573423582852 a25.230525029615336,25.230525029615336 0 0,0 0.40658492283256703,-0.14930361545211857 l 1.4241524569082882 3.9836078880436925" fill="#ff2e04" stroke="none" /><path d="M 93.95794788825049 79.88797359093562 l -1.2410963212654313 -4.13120600879019 a25.31360442851715,25.31360442851715 0 0,0 0.41724051064111367,-0.12145263171927344 l 1.1699957982426934 4.151902334811983" fill="#ff2f04" stroke="none" /><path d="M 94.30408787586887 79.78721728523814 l -1.0889754256676776 -3.864389615051115 a25.014894092578658,25.014894092578658 0 0,0 0.41431644852610083,-0.11292379042919691 l 1.0224775762068992 3.8825138996244517" fill="#ff2b04" stroke="none" /><path d="M 94.6519064749342 79.69241777938228 l -0.8740135022214928 -3.318771628638378 a24.431930174860863,24.431930174860863 0 0,0 0.406494622827788,-0.10332934353796712 l 0.8169135861683267 3.3332862040116082" fill="#ff2303" stroke="none" /><path d="M 95.35216902796891 79.52079915486377 l -5.860056734428895 -25.82049122492479 a47.47712280492621,47.47712280492621 0 0,0 0.7963441429849787,-0.17355949951146546 l 5.415950174824798 25.91728218256997" fill="#b4ff20" stroke="none" /><path d="M 95.70440661134978 79.44403061299748 l -5.233326408397377 -25.043361349667123 a46.58432436056951,46.58432436056951 0 0,0 0.7841772562202979,-0.15685741340898154 l 4.802652666646102 25.129508159738972" fill="#beff1e" stroke="none" /><path d="M 96.05791012581881 79.37332000966035 l -0.6483077108329792 -3.3922198918407735 a24.453615306099643,24.453615306099643 0 0,0 0.4129927613418206,-0.0752610386292016 l 0.5899802159401201 3.4028491044013363" fill="#ff2303" stroke="none" /><path d="M 96.41257539226777 79.30868818359171 l -0.6071715012657647 -3.5020038697533584 a24.554249335051892,24.554249335051892 0 0,0 0.4159285182915278,-0.06844087940550769 l 0.5469654799211641 3.5119107476545346" fill="#ff2403" stroke="none" /><path d="M 96.76829788921471 79.25015418208739 l -4.484578081573291 -28.794208302950334 a50.14134300891813,50.14134300891813 0 0,0 0.8516265820187962,-0.12515978018475987 l 3.98962639394681 28.86694915643398" fill="#96ff23" stroke="none" /><path d="M 97.12497278360702 79.19773525538626 l -4.04320020557778 -29.254582569631264 a50.53266105899971,50.53266105899971 0 0,0 0.8603117641651348,-0.11138458191274138 l 3.5404106195218517 29.3196787477444" fill="#92ff23" stroke="none" /><path d="M 97.48249496171623 79.15144685158666 l -3.82320299338815 -31.66160527693092 a52.89159967516261,52.89159967516261 0 0,0 0.9023410128815995,-0.10110919259662621 l 3.2791260789057515 31.722570230034517" fill="#79ff26" stroke="none" /><path d="M 98.1996594967304 79.07731436759882 l -2.092833966412079 -24.321903040301812 a45.41177833572988,45.41177833572988 0 0,0 0.7772571969645907,-0.06016462276312626 l 1.6750077746722711 24.354245430059994" fill="#ccff1d" stroke="none" /><path d="M 99.27912038922189 79.0123766808444 l -0.10902376971641604 -3.174108099926267 a24.17597991372438,24.17597991372438 0 0,0 0.41489053715235197,-0.01068610851899152 l 0.05451991849332015 3.1755119257953037" fill="#ff1f03" stroke="none" /></svg>